<mxfile host="app.diagrams.net" modified="2021-02-09T18:49:06.215Z" agent="5.0 (Windows NT 10.0; Win64; x64) AppleWebKit/537.36 (KHTML, like Gecko) Chrome/88.0.4324.146 Safari/537.36" etag="9Nr51zkeU50NvdWOvoOo" version="14.3.0" type="github" pages="2">
  <diagram id="zmgC2hMmw6vXnt68TBfg" name="Page-1">
    <mxGraphModel dx="2076" dy="1170" grid="1" gridSize="10" guides="1" tooltips="1" connect="1" arrows="1" fold="1" page="1" pageScale="1" pageWidth="827" pageHeight="1169" math="0" shadow="0">
      <root>
        <mxCell id="0" />
        <mxCell id="1" parent="0" />
        <mxCell id="AXdl8-3qUW13KH6QiEkb-129" style="edgeStyle=orthogonalEdgeStyle;rounded=0;orthogonalLoop=1;jettySize=auto;html=1;exitX=1;exitY=0.5;exitDx=0;exitDy=0;entryX=-0.042;entryY=0.467;entryDx=0;entryDy=0;entryPerimeter=0;fontSize=12;" parent="1" source="AXdl8-3qUW13KH6QiEkb-30" target="AXdl8-3qUW13KH6QiEkb-33" edge="1">
          <mxGeometry relative="1" as="geometry">
            <Array as="points">
              <mxPoint x="150" y="375" />
              <mxPoint x="150" y="219" />
            </Array>
          </mxGeometry>
        </mxCell>
        <mxCell id="AXdl8-3qUW13KH6QiEkb-130" style="edgeStyle=orthogonalEdgeStyle;rounded=0;orthogonalLoop=1;jettySize=auto;html=1;exitX=1;exitY=0.5;exitDx=0;exitDy=0;entryX=-0.033;entryY=0.667;entryDx=0;entryDy=0;entryPerimeter=0;fontSize=12;" parent="1" source="AXdl8-3qUW13KH6QiEkb-30" target="AXdl8-3qUW13KH6QiEkb-40" edge="1">
          <mxGeometry relative="1" as="geometry">
            <Array as="points">
              <mxPoint x="150" y="375" />
              <mxPoint x="150" y="523" />
            </Array>
          </mxGeometry>
        </mxCell>
        <mxCell id="AXdl8-3qUW13KH6QiEkb-30" value="Introducción" style="rounded=1;whiteSpace=wrap;html=1;" parent="1" vertex="1">
          <mxGeometry x="40" y="360" width="90" height="30" as="geometry" />
        </mxCell>
        <mxCell id="nDlZUgQkFuVRFbo8a9Mp-2" value="" style="edgeStyle=orthogonalEdgeStyle;rounded=0;orthogonalLoop=1;jettySize=auto;html=1;fontSize=12;" parent="1" source="AXdl8-3qUW13KH6QiEkb-31" target="nDlZUgQkFuVRFbo8a9Mp-1" edge="1">
          <mxGeometry relative="1" as="geometry">
            <Array as="points">
              <mxPoint x="360" y="55" />
              <mxPoint x="360" y="30" />
            </Array>
          </mxGeometry>
        </mxCell>
        <mxCell id="nDlZUgQkFuVRFbo8a9Mp-9" value="" style="edgeStyle=orthogonalEdgeStyle;rounded=0;orthogonalLoop=1;jettySize=auto;html=1;fontSize=12;entryX=-0.008;entryY=0.572;entryDx=0;entryDy=0;entryPerimeter=0;" parent="1" source="AXdl8-3qUW13KH6QiEkb-31" target="nDlZUgQkFuVRFbo8a9Mp-3" edge="1">
          <mxGeometry relative="1" as="geometry">
            <Array as="points">
              <mxPoint x="360" y="55" />
              <mxPoint x="360" y="67" />
            </Array>
          </mxGeometry>
        </mxCell>
        <mxCell id="nDlZUgQkFuVRFbo8a9Mp-11" value="" style="edgeStyle=orthogonalEdgeStyle;rounded=0;orthogonalLoop=1;jettySize=auto;html=1;fontSize=12;entryX=-0.013;entryY=0.642;entryDx=0;entryDy=0;entryPerimeter=0;" parent="1" source="AXdl8-3qUW13KH6QiEkb-31" target="nDlZUgQkFuVRFbo8a9Mp-5" edge="1">
          <mxGeometry relative="1" as="geometry">
            <Array as="points">
              <mxPoint x="360" y="55" />
              <mxPoint x="360" y="108" />
            </Array>
          </mxGeometry>
        </mxCell>
        <mxCell id="AXdl8-3qUW13KH6QiEkb-31" value="Tema 1 - La concepción del espacio geográfico. &lt;br&gt;Corrientes actuales del pensamiento geográfico&lt;br&gt;" style="text;html=1;align=center;verticalAlign=middle;resizable=0;points=[];autosize=1;" parent="1" vertex="1">
          <mxGeometry x="40" y="40" width="270" height="30" as="geometry" />
        </mxCell>
        <mxCell id="AXdl8-3qUW13KH6QiEkb-35" value="" style="edgeStyle=orthogonalEdgeStyle;rounded=0;orthogonalLoop=1;jettySize=auto;html=1;" parent="1" source="AXdl8-3qUW13KH6QiEkb-33" target="AXdl8-3qUW13KH6QiEkb-34" edge="1">
          <mxGeometry relative="1" as="geometry">
            <Array as="points">
              <mxPoint x="330" y="220" />
              <mxPoint x="330" y="200" />
            </Array>
          </mxGeometry>
        </mxCell>
        <mxCell id="AXdl8-3qUW13KH6QiEkb-39" value="" style="edgeStyle=orthogonalEdgeStyle;rounded=0;orthogonalLoop=1;jettySize=auto;html=1;" parent="1" source="AXdl8-3qUW13KH6QiEkb-33" target="AXdl8-3qUW13KH6QiEkb-36" edge="1">
          <mxGeometry relative="1" as="geometry" />
        </mxCell>
        <mxCell id="AXdl8-3qUW13KH6QiEkb-33" value="Objetivo del tema&amp;nbsp;" style="text;html=1;align=center;verticalAlign=middle;resizable=0;points=[];autosize=1;strokeColor=#000000;" parent="1" vertex="1">
          <mxGeometry x="180" y="210" width="110" height="20" as="geometry" />
        </mxCell>
        <mxCell id="AXdl8-3qUW13KH6QiEkb-34" value="Conceptualizar la disciplina" style="text;html=1;align=center;verticalAlign=middle;resizable=0;points=[];autosize=1;strokeColor=#000000;" parent="1" vertex="1">
          <mxGeometry x="345" y="190" width="160" height="20" as="geometry" />
        </mxCell>
        <mxCell id="AXdl8-3qUW13KH6QiEkb-36" value="Geografía &amp;gt; &#39;ciencia con una breve historia y un largo pasado&#39;" style="text;html=1;align=center;verticalAlign=middle;resizable=0;points=[];autosize=1;strokeColor=#000000;fontStyle=2" parent="1" vertex="1">
          <mxGeometry x="345" y="230" width="340" height="20" as="geometry" />
        </mxCell>
        <mxCell id="AXdl8-3qUW13KH6QiEkb-42" value="" style="edgeStyle=orthogonalEdgeStyle;rounded=0;orthogonalLoop=1;jettySize=auto;html=1;" parent="1" source="AXdl8-3qUW13KH6QiEkb-40" target="AXdl8-3qUW13KH6QiEkb-41" edge="1">
          <mxGeometry relative="1" as="geometry">
            <Array as="points">
              <mxPoint x="300" y="520" />
              <mxPoint x="300" y="310" />
            </Array>
          </mxGeometry>
        </mxCell>
        <mxCell id="AXdl8-3qUW13KH6QiEkb-68" value="" style="rounded=0;orthogonalLoop=1;jettySize=auto;html=1;edgeStyle=elbowEdgeStyle;" parent="1" target="AXdl8-3qUW13KH6QiEkb-67" edge="1">
          <mxGeometry relative="1" as="geometry">
            <mxPoint x="300" y="390" as="sourcePoint" />
            <Array as="points">
              <mxPoint x="300" y="430" />
            </Array>
          </mxGeometry>
        </mxCell>
        <mxCell id="AXdl8-3qUW13KH6QiEkb-101" value="" style="edgeStyle=orthogonalEdgeStyle;rounded=0;orthogonalLoop=1;jettySize=auto;html=1;fontSize=12;entryX=-0.008;entryY=0.58;entryDx=0;entryDy=0;entryPerimeter=0;" parent="1" source="AXdl8-3qUW13KH6QiEkb-40" target="AXdl8-3qUW13KH6QiEkb-100" edge="1">
          <mxGeometry relative="1" as="geometry">
            <Array as="points">
              <mxPoint x="300" y="520" />
              <mxPoint x="300" y="827" />
            </Array>
          </mxGeometry>
        </mxCell>
        <mxCell id="AXdl8-3qUW13KH6QiEkb-40" value="Características" style="text;html=1;align=center;verticalAlign=middle;resizable=0;points=[];autosize=1;strokeColor=#000000;" parent="1" vertex="1">
          <mxGeometry x="180" y="510" width="100" height="20" as="geometry" />
        </mxCell>
        <mxCell id="AXdl8-3qUW13KH6QiEkb-44" value="" style="edgeStyle=orthogonalEdgeStyle;rounded=0;orthogonalLoop=1;jettySize=auto;html=1;" parent="1" source="AXdl8-3qUW13KH6QiEkb-41" target="AXdl8-3qUW13KH6QiEkb-43" edge="1">
          <mxGeometry relative="1" as="geometry" />
        </mxCell>
        <mxCell id="AXdl8-3qUW13KH6QiEkb-46" value="" style="edgeStyle=orthogonalEdgeStyle;rounded=0;orthogonalLoop=1;jettySize=auto;html=1;" parent="1" source="AXdl8-3qUW13KH6QiEkb-41" target="AXdl8-3qUW13KH6QiEkb-45" edge="1">
          <mxGeometry relative="1" as="geometry" />
        </mxCell>
        <mxCell id="AXdl8-3qUW13KH6QiEkb-61" value="" style="edgeStyle=orthogonalEdgeStyle;rounded=0;orthogonalLoop=1;jettySize=auto;html=1;" parent="1" source="AXdl8-3qUW13KH6QiEkb-41" target="AXdl8-3qUW13KH6QiEkb-58" edge="1">
          <mxGeometry relative="1" as="geometry">
            <Array as="points">
              <mxPoint x="670" y="310" />
              <mxPoint x="670" y="380" />
            </Array>
          </mxGeometry>
        </mxCell>
        <mxCell id="AXdl8-3qUW13KH6QiEkb-41" value="Evolución &amp;gt;&amp;gt; continua reducción de su campo de estudio" style="text;html=1;align=center;verticalAlign=middle;resizable=0;points=[];autosize=1;strokeColor=#000000;" parent="1" vertex="1">
          <mxGeometry x="330" y="300" width="320" height="20" as="geometry" />
        </mxCell>
        <mxCell id="AXdl8-3qUW13KH6QiEkb-52" value="" style="edgeStyle=orthogonalEdgeStyle;rounded=0;orthogonalLoop=1;jettySize=auto;html=1;" parent="1" source="AXdl8-3qUW13KH6QiEkb-43" target="AXdl8-3qUW13KH6QiEkb-51" edge="1">
          <mxGeometry relative="1" as="geometry" />
        </mxCell>
        <mxCell id="AXdl8-3qUW13KH6QiEkb-43" value="Antigüedad: madre de las ciencias&amp;nbsp;" style="text;html=1;align=center;verticalAlign=middle;resizable=0;points=[];autosize=1;strokeColor=#000000;" parent="1" vertex="1">
          <mxGeometry x="700" y="280" width="200" height="20" as="geometry" />
        </mxCell>
        <mxCell id="AXdl8-3qUW13KH6QiEkb-54" value="" style="edgeStyle=orthogonalEdgeStyle;rounded=0;orthogonalLoop=1;jettySize=auto;html=1;" parent="1" source="AXdl8-3qUW13KH6QiEkb-45" target="AXdl8-3qUW13KH6QiEkb-53" edge="1">
          <mxGeometry relative="1" as="geometry" />
        </mxCell>
        <mxCell id="AXdl8-3qUW13KH6QiEkb-45" value="Renacimiento + nueva Física" style="text;html=1;align=center;verticalAlign=middle;resizable=0;points=[];autosize=1;strokeColor=#000000;" parent="1" vertex="1">
          <mxGeometry x="700" y="310" width="170" height="20" as="geometry" />
        </mxCell>
        <mxCell id="AXdl8-3qUW13KH6QiEkb-51" value="Temas de estudio: el universo (Cosmografía, Astronomía)" style="text;html=1;align=center;verticalAlign=middle;resizable=0;points=[];autosize=1;strokeColor=#000000;" parent="1" vertex="1">
          <mxGeometry x="990" y="280" width="320" height="20" as="geometry" />
        </mxCell>
        <mxCell id="AXdl8-3qUW13KH6QiEkb-53" value="Limita estudio al Planeta Tierra" style="text;html=1;align=center;verticalAlign=middle;resizable=0;points=[];autosize=1;strokeColor=#000000;" parent="1" vertex="1">
          <mxGeometry x="920" y="310" width="180" height="20" as="geometry" />
        </mxCell>
        <mxCell id="AXdl8-3qUW13KH6QiEkb-66" value="" style="edgeStyle=none;rounded=0;orthogonalLoop=1;jettySize=auto;html=1;" parent="1" source="AXdl8-3qUW13KH6QiEkb-58" target="AXdl8-3qUW13KH6QiEkb-65" edge="1">
          <mxGeometry relative="1" as="geometry" />
        </mxCell>
        <mxCell id="AXdl8-3qUW13KH6QiEkb-58" value="Finales XVIII" style="text;html=1;align=center;verticalAlign=middle;resizable=0;points=[];autosize=1;strokeColor=#000000;" parent="1" vertex="1">
          <mxGeometry x="700" y="370" width="80" height="20" as="geometry" />
        </mxCell>
        <mxCell id="AXdl8-3qUW13KH6QiEkb-65" value="estudio exclusivo de la superficie terrestre" style="text;html=1;align=center;verticalAlign=middle;resizable=0;points=[];autosize=1;strokeColor=#000000;" parent="1" vertex="1">
          <mxGeometry x="850" y="370" width="240" height="20" as="geometry" />
        </mxCell>
        <mxCell id="AXdl8-3qUW13KH6QiEkb-71" value="" style="edgeStyle=elbowEdgeStyle;rounded=0;orthogonalLoop=1;jettySize=auto;html=1;" parent="1" source="AXdl8-3qUW13KH6QiEkb-67" target="AXdl8-3qUW13KH6QiEkb-70" edge="1">
          <mxGeometry relative="1" as="geometry" />
        </mxCell>
        <mxCell id="AXdl8-3qUW13KH6QiEkb-73" value="" style="edgeStyle=elbowEdgeStyle;rounded=0;orthogonalLoop=1;jettySize=auto;html=1;" parent="1" source="AXdl8-3qUW13KH6QiEkb-67" target="AXdl8-3qUW13KH6QiEkb-72" edge="1">
          <mxGeometry relative="1" as="geometry" />
        </mxCell>
        <mxCell id="AXdl8-3qUW13KH6QiEkb-75" value="" style="edgeStyle=elbowEdgeStyle;rounded=0;orthogonalLoop=1;jettySize=auto;html=1;" parent="1" source="AXdl8-3qUW13KH6QiEkb-67" target="AXdl8-3qUW13KH6QiEkb-74" edge="1">
          <mxGeometry relative="1" as="geometry" />
        </mxCell>
        <mxCell id="AXdl8-3qUW13KH6QiEkb-77" value="" style="edgeStyle=elbowEdgeStyle;rounded=0;orthogonalLoop=1;jettySize=auto;html=1;" parent="1" source="AXdl8-3qUW13KH6QiEkb-67" target="AXdl8-3qUW13KH6QiEkb-76" edge="1">
          <mxGeometry relative="1" as="geometry">
            <Array as="points">
              <mxPoint x="520" y="660" />
            </Array>
          </mxGeometry>
        </mxCell>
        <mxCell id="AXdl8-3qUW13KH6QiEkb-98" value="" style="edgeStyle=orthogonalEdgeStyle;rounded=0;orthogonalLoop=1;jettySize=auto;html=1;fontSize=12;" parent="1" source="AXdl8-3qUW13KH6QiEkb-67" target="AXdl8-3qUW13KH6QiEkb-97" edge="1">
          <mxGeometry relative="1" as="geometry">
            <Array as="points">
              <mxPoint x="520" y="520" />
              <mxPoint x="520" y="600" />
            </Array>
          </mxGeometry>
        </mxCell>
        <mxCell id="AXdl8-3qUW13KH6QiEkb-67" value="Ciencia eclética y de síntesis" style="text;html=1;align=center;verticalAlign=middle;resizable=0;points=[];autosize=1;strokeColor=#000000;" parent="1" vertex="1">
          <mxGeometry x="330" y="510" width="170" height="20" as="geometry" />
        </mxCell>
        <mxCell id="AXdl8-3qUW13KH6QiEkb-70" value="&#39;ciencia que estudia la superficie terrestre considerada como morada del hombre&#39;" style="text;html=1;align=center;verticalAlign=middle;resizable=0;points=[];autosize=1;strokeColor=#000000;fontStyle=2" parent="1" vertex="1">
          <mxGeometry x="540" y="440" width="450" height="20" as="geometry" />
        </mxCell>
        <mxCell id="AXdl8-3qUW13KH6QiEkb-72" value="Reúne diversos campos de estudio de otras ciencias" style="text;html=1;align=center;verticalAlign=middle;resizable=0;points=[];autosize=1;strokeColor=#000000;" parent="1" vertex="1">
          <mxGeometry x="540" y="490" width="300" height="20" as="geometry" />
        </mxCell>
        <mxCell id="AXdl8-3qUW13KH6QiEkb-74" value="interrelaciona ciencias de la naturaleza y de las ciencias del hombre&amp;nbsp;" style="text;html=1;align=center;verticalAlign=middle;resizable=0;points=[];autosize=1;strokeColor=#000000;" parent="1" vertex="1">
          <mxGeometry x="540" y="540" width="380" height="20" as="geometry" />
        </mxCell>
        <mxCell id="AXdl8-3qUW13KH6QiEkb-80" value="" style="edgeStyle=elbowEdgeStyle;rounded=0;orthogonalLoop=1;jettySize=auto;html=1;" parent="1" source="AXdl8-3qUW13KH6QiEkb-76" target="AXdl8-3qUW13KH6QiEkb-79" edge="1">
          <mxGeometry relative="1" as="geometry" />
        </mxCell>
        <mxCell id="AXdl8-3qUW13KH6QiEkb-84" value="" style="edgeStyle=orthogonalEdgeStyle;rounded=0;orthogonalLoop=1;jettySize=auto;html=1;entryX=-0.012;entryY=0.52;entryDx=0;entryDy=0;entryPerimeter=0;" parent="1" source="AXdl8-3qUW13KH6QiEkb-79" target="AXdl8-3qUW13KH6QiEkb-83" edge="1">
          <mxGeometry relative="1" as="geometry">
            <mxPoint x="1080" y="640" as="targetPoint" />
            <Array as="points">
              <mxPoint x="1050" y="675" />
              <mxPoint x="1050" y="620" />
            </Array>
          </mxGeometry>
        </mxCell>
        <mxCell id="AXdl8-3qUW13KH6QiEkb-76" value="Definición más aceptada" style="text;html=1;align=center;verticalAlign=middle;resizable=0;points=[];autosize=1;strokeColor=#000000;" parent="1" vertex="1">
          <mxGeometry x="540" y="665" width="150" height="20" as="geometry" />
        </mxCell>
        <mxCell id="AXdl8-3qUW13KH6QiEkb-79" value="&amp;#39;Ciencia que estudia las variaciones de las &lt;br&gt;distribuciones espaciales de los fenómenos de la &lt;br&gt;superficie terrestre, así como las relaciones entre&lt;br&gt;el medio natural y el hombre, y la individualización y &lt;br&gt;análisis de las regiones en l superficie terrestre" style="text;align=center;verticalAlign=middle;resizable=0;points=[];autosize=1;strokeWidth=1;rounded=1;fontStyle=2;strokeColor=#000000;perimeterSpacing=0;textDirection=ltr;labelBorderColor=none;html=1;spacingTop=0;spacing=5;" parent="1" vertex="1">
          <mxGeometry x="730" y="635" width="300" height="80" as="geometry" />
        </mxCell>
        <mxCell id="AXdl8-3qUW13KH6QiEkb-86" value="" style="edgeStyle=elbowEdgeStyle;rounded=0;orthogonalLoop=1;jettySize=auto;html=1;" parent="1" target="AXdl8-3qUW13KH6QiEkb-85" edge="1">
          <mxGeometry relative="1" as="geometry">
            <mxPoint x="1100" y="640" as="sourcePoint" />
            <Array as="points">
              <mxPoint x="1100" y="660" />
              <mxPoint x="1100" y="640" />
              <mxPoint x="1090" y="640" />
              <mxPoint x="1080" y="640" />
            </Array>
          </mxGeometry>
        </mxCell>
        <mxCell id="AXdl8-3qUW13KH6QiEkb-88" value="" style="edgeStyle=orthogonalEdgeStyle;rounded=0;orthogonalLoop=1;jettySize=auto;html=1;entryX=-0.001;entryY=0.475;entryDx=0;entryDy=0;entryPerimeter=0;" parent="1" target="AXdl8-3qUW13KH6QiEkb-87" edge="1">
          <mxGeometry relative="1" as="geometry">
            <mxPoint x="1100" y="630" as="sourcePoint" />
            <Array as="points">
              <mxPoint x="1100" y="675" />
              <mxPoint x="1120" y="675" />
            </Array>
          </mxGeometry>
        </mxCell>
        <mxCell id="AXdl8-3qUW13KH6QiEkb-94" value="" style="edgeStyle=orthogonalEdgeStyle;rounded=0;orthogonalLoop=1;jettySize=auto;html=1;" parent="1" target="AXdl8-3qUW13KH6QiEkb-90" edge="1">
          <mxGeometry relative="1" as="geometry">
            <mxPoint x="1100" y="630" as="sourcePoint" />
            <Array as="points">
              <mxPoint x="1100" y="705" />
            </Array>
          </mxGeometry>
        </mxCell>
        <mxCell id="AXdl8-3qUW13KH6QiEkb-83" value="Recoge principales tradiciones de la Geografía" style="text;html=1;align=center;verticalAlign=middle;resizable=0;points=[];autosize=1;strokeColor=#000000;" parent="1" vertex="1">
          <mxGeometry x="1070" y="610" width="270" height="20" as="geometry" />
        </mxCell>
        <mxCell id="AXdl8-3qUW13KH6QiEkb-85" value="espacial" style="text;html=1;align=center;verticalAlign=middle;resizable=0;points=[];autosize=1;strokeColor=#000000;spacing=0;spacingBottom=0;spacingRight=0;spacingTop=-1;spacingLeft=-5;fontSize=12;" parent="1" vertex="1">
          <mxGeometry x="1120" y="635" width="50" height="20" as="geometry" />
        </mxCell>
        <mxCell id="AXdl8-3qUW13KH6QiEkb-87" value="fisica" style="text;html=1;align=center;verticalAlign=middle;resizable=0;points=[];autosize=1;strokeColor=#000000;spacingLeft=-3;" parent="1" vertex="1">
          <mxGeometry x="1120" y="665" width="40" height="20" as="geometry" />
        </mxCell>
        <mxCell id="AXdl8-3qUW13KH6QiEkb-89" style="edgeStyle=elbowEdgeStyle;rounded=0;orthogonalLoop=1;jettySize=auto;html=1;entryX=0.023;entryY=-0.025;entryDx=0;entryDy=0;entryPerimeter=0;" parent="1" source="AXdl8-3qUW13KH6QiEkb-87" target="AXdl8-3qUW13KH6QiEkb-87" edge="1">
          <mxGeometry relative="1" as="geometry" />
        </mxCell>
        <mxCell id="AXdl8-3qUW13KH6QiEkb-96" value="" style="edgeStyle=orthogonalEdgeStyle;rounded=0;orthogonalLoop=1;jettySize=auto;html=1;" parent="1" target="AXdl8-3qUW13KH6QiEkb-95" edge="1">
          <mxGeometry relative="1" as="geometry">
            <mxPoint x="1100" y="630" as="sourcePoint" />
            <Array as="points">
              <mxPoint x="1100" y="730" />
            </Array>
          </mxGeometry>
        </mxCell>
        <mxCell id="AXdl8-3qUW13KH6QiEkb-90" value="ecológica" style="text;html=1;align=center;verticalAlign=middle;resizable=0;points=[];autosize=1;strokeColor=#000000;" parent="1" vertex="1">
          <mxGeometry x="1120" y="695" width="70" height="20" as="geometry" />
        </mxCell>
        <mxCell id="AXdl8-3qUW13KH6QiEkb-95" value="regional" style="text;html=1;align=center;verticalAlign=middle;resizable=0;points=[];autosize=1;strokeColor=#000000;" parent="1" vertex="1">
          <mxGeometry x="1120" y="720" width="60" height="20" as="geometry" />
        </mxCell>
        <mxCell id="AXdl8-3qUW13KH6QiEkb-99" value="" style="edgeStyle=orthogonalEdgeStyle;rounded=0;orthogonalLoop=1;jettySize=auto;html=1;fontSize=12;" parent="1" source="AXdl8-3qUW13KH6QiEkb-97" target="AXdl8-3qUW13KH6QiEkb-76" edge="1">
          <mxGeometry relative="1" as="geometry">
            <Array as="points">
              <mxPoint x="605" y="630" />
              <mxPoint x="605" y="630" />
            </Array>
          </mxGeometry>
        </mxCell>
        <mxCell id="AXdl8-3qUW13KH6QiEkb-97" value="Carácter eclético genera posturas encontradas en comunidad científica" style="text;html=1;align=center;verticalAlign=middle;resizable=0;points=[];autosize=1;strokeColor=#000000;" parent="1" vertex="1">
          <mxGeometry x="540" y="590" width="390" height="20" as="geometry" />
        </mxCell>
        <mxCell id="AXdl8-3qUW13KH6QiEkb-104" value="motivado" style="rounded=0;orthogonalLoop=1;jettySize=auto;html=1;fontSize=12;entryX=-0.006;entryY=0.472;entryDx=0;entryDy=0;entryPerimeter=0;edgeStyle=orthogonalEdgeStyle;" parent="1" source="AXdl8-3qUW13KH6QiEkb-100" target="AXdl8-3qUW13KH6QiEkb-103" edge="1">
          <mxGeometry relative="1" as="geometry">
            <Array as="points">
              <mxPoint x="578" y="825" />
              <mxPoint x="578" y="829" />
            </Array>
          </mxGeometry>
        </mxCell>
        <mxCell id="AXdl8-3qUW13KH6QiEkb-100" value="Insuficiencia de los enfoques &lt;br&gt;geográficos tradicionales" style="text;html=1;align=center;verticalAlign=middle;resizable=0;points=[];autosize=1;strokeColor=#000000;" parent="1" vertex="1">
          <mxGeometry x="345" y="810" width="170" height="30" as="geometry" />
        </mxCell>
        <mxCell id="AXdl8-3qUW13KH6QiEkb-106" value="" style="edgeStyle=orthogonalEdgeStyle;rounded=0;orthogonalLoop=1;jettySize=auto;html=1;fontSize=12;" parent="1" source="AXdl8-3qUW13KH6QiEkb-103" target="AXdl8-3qUW13KH6QiEkb-105" edge="1">
          <mxGeometry relative="1" as="geometry">
            <Array as="points">
              <mxPoint x="830" y="825" />
              <mxPoint x="830" y="785" />
            </Array>
          </mxGeometry>
        </mxCell>
        <mxCell id="AXdl8-3qUW13KH6QiEkb-103" value="buscar bases conceptuales y&lt;br&gt;metodologías más adecuadas" style="text;html=1;align=center;verticalAlign=middle;resizable=0;points=[];autosize=1;strokeColor=#000000;" parent="1" vertex="1">
          <mxGeometry x="640" y="815" width="180" height="30" as="geometry" />
        </mxCell>
        <mxCell id="AXdl8-3qUW13KH6QiEkb-108" value="" style="edgeStyle=orthogonalEdgeStyle;rounded=0;orthogonalLoop=1;jettySize=auto;html=1;fontSize=12;" parent="1" source="AXdl8-3qUW13KH6QiEkb-105" target="AXdl8-3qUW13KH6QiEkb-107" edge="1">
          <mxGeometry relative="1" as="geometry">
            <Array as="points">
              <mxPoint x="952" y="810" />
              <mxPoint x="952" y="810" />
            </Array>
          </mxGeometry>
        </mxCell>
        <mxCell id="AXdl8-3qUW13KH6QiEkb-105" value="gran reflexión etimológica" style="text;html=1;align=center;verticalAlign=middle;resizable=0;points=[];autosize=1;strokeColor=#000000;" parent="1" vertex="1">
          <mxGeometry x="862" y="775" width="150" height="20" as="geometry" />
        </mxCell>
        <mxCell id="AXdl8-3qUW13KH6QiEkb-122" value="" style="edgeStyle=orthogonalEdgeStyle;rounded=0;orthogonalLoop=1;jettySize=auto;html=1;fontSize=12;" parent="1" source="AXdl8-3qUW13KH6QiEkb-107" target="AXdl8-3qUW13KH6QiEkb-109" edge="1">
          <mxGeometry relative="1" as="geometry" />
        </mxCell>
        <mxCell id="AXdl8-3qUW13KH6QiEkb-107" value="búsqueda de diferentes paradigmas" style="text;html=1;align=center;verticalAlign=middle;resizable=0;points=[];autosize=1;strokeColor=#000000;" parent="1" vertex="1">
          <mxGeometry x="862" y="820" width="210" height="20" as="geometry" />
        </mxCell>
        <mxCell id="AXdl8-3qUW13KH6QiEkb-117" value="pueden" style="edgeStyle=orthogonalEdgeStyle;rounded=0;orthogonalLoop=1;jettySize=auto;html=1;fontSize=12;" parent="1" source="AXdl8-3qUW13KH6QiEkb-109" target="AXdl8-3qUW13KH6QiEkb-116" edge="1">
          <mxGeometry x="-0.3708" y="10" relative="1" as="geometry">
            <mxPoint x="1140" y="850" as="targetPoint" />
            <Array as="points">
              <mxPoint x="1140" y="890" />
              <mxPoint x="1140" y="870" />
            </Array>
            <mxPoint as="offset" />
          </mxGeometry>
        </mxCell>
        <mxCell id="AXdl8-3qUW13KH6QiEkb-126" style="edgeStyle=orthogonalEdgeStyle;rounded=0;orthogonalLoop=1;jettySize=auto;html=1;fontSize=12;" parent="1" source="AXdl8-3qUW13KH6QiEkb-109" target="AXdl8-3qUW13KH6QiEkb-113" edge="1">
          <mxGeometry relative="1" as="geometry">
            <Array as="points">
              <mxPoint x="1140" y="890" />
              <mxPoint x="1140" y="915" />
            </Array>
          </mxGeometry>
        </mxCell>
        <mxCell id="AXdl8-3qUW13KH6QiEkb-109" value="paradigmas que responden a diferentes&lt;br&gt;planteamientos filosóficos" style="text;html=1;align=center;verticalAlign=middle;resizable=0;points=[];autosize=1;strokeColor=#000000;" parent="1" vertex="1">
          <mxGeometry x="852" y="875" width="230" height="30" as="geometry" />
        </mxCell>
        <mxCell id="AXdl8-3qUW13KH6QiEkb-113" value="convivir y complementarse (actulidad)" style="text;html=1;align=center;verticalAlign=middle;resizable=0;points=[];autosize=1;strokeColor=#000000;" parent="1" vertex="1">
          <mxGeometry x="1151" y="905" width="220" height="20" as="geometry" />
        </mxCell>
        <mxCell id="AXdl8-3qUW13KH6QiEkb-116" value="excluirse entre sí" style="text;html=1;align=center;verticalAlign=middle;resizable=0;points=[];autosize=1;strokeColor=#000000;" parent="1" vertex="1">
          <mxGeometry x="1151" y="860" width="110" height="20" as="geometry" />
        </mxCell>
        <mxCell id="nDlZUgQkFuVRFbo8a9Mp-13" value="" style="edgeStyle=elbowEdgeStyle;rounded=0;orthogonalLoop=1;jettySize=auto;html=1;fontSize=12;entryX=-0.006;entryY=0.572;entryDx=0;entryDy=0;entryPerimeter=0;" parent="1" source="AXdl8-3qUW13KH6QiEkb-131" target="nDlZUgQkFuVRFbo8a9Mp-14" edge="1">
          <mxGeometry relative="1" as="geometry">
            <mxPoint x="180" y="1150" as="targetPoint" />
          </mxGeometry>
        </mxCell>
        <mxCell id="AXdl8-3qUW13KH6QiEkb-131" value="1º&amp;nbsp; &lt;br&gt;Concepción del espacio geográfico" style="rounded=1;whiteSpace=wrap;html=1;" parent="1" vertex="1">
          <mxGeometry x="20" y="1400" width="110" height="50" as="geometry" />
        </mxCell>
        <mxCell id="nDlZUgQkFuVRFbo8a9Mp-1" value="1º - espacio geográfico" style="text;html=1;align=center;verticalAlign=middle;resizable=0;points=[];autosize=1;fontSize=12;" parent="1" vertex="1">
          <mxGeometry x="400" y="20" width="140" height="20" as="geometry" />
        </mxCell>
        <mxCell id="nDlZUgQkFuVRFbo8a9Mp-3" value="&amp;nbsp; &amp;nbsp;2º -&amp;nbsp; &amp;nbsp;estructura actual de la disciplina&lt;br&gt;&amp;nbsp;en grandes especialidades" style="text;html=1;align=center;verticalAlign=middle;resizable=0;points=[];autosize=1;" parent="1" vertex="1">
          <mxGeometry x="395" y="50" width="220" height="30" as="geometry" />
        </mxCell>
        <mxCell id="nDlZUgQkFuVRFbo8a9Mp-5" value="3º- Corrientes actuales del pensamiento geográfico" style="text;html=1;align=center;verticalAlign=middle;resizable=0;points=[];autosize=1;" parent="1" vertex="1">
          <mxGeometry x="400" y="95" width="290" height="20" as="geometry" />
        </mxCell>
        <mxCell id="nDlZUgQkFuVRFbo8a9Mp-16" value="" style="edgeStyle=elbowEdgeStyle;rounded=0;orthogonalLoop=1;jettySize=auto;html=1;fontSize=12;" parent="1" source="nDlZUgQkFuVRFbo8a9Mp-14" target="nDlZUgQkFuVRFbo8a9Mp-15" edge="1">
          <mxGeometry relative="1" as="geometry">
            <Array as="points">
              <mxPoint x="220" y="1075" />
              <mxPoint x="200" y="1085" />
            </Array>
          </mxGeometry>
        </mxCell>
        <mxCell id="nDlZUgQkFuVRFbo8a9Mp-14" value="Actualidad se relaciona el trabajo del geógrafo con:" style="text;html=1;align=center;verticalAlign=middle;resizable=0;points=[];autosize=1;strokeColor=#000000;" parent="1" vertex="1">
          <mxGeometry x="200" y="1035" width="290" height="20" as="geometry" />
        </mxCell>
        <mxCell id="nDlZUgQkFuVRFbo8a9Mp-18" value="" style="edgeStyle=elbowEdgeStyle;rounded=0;orthogonalLoop=1;jettySize=auto;html=1;fontSize=12;" parent="1" target="nDlZUgQkFuVRFbo8a9Mp-17" edge="1">
          <mxGeometry relative="1" as="geometry">
            <mxPoint x="220" y="1055" as="sourcePoint" />
            <Array as="points">
              <mxPoint x="220" y="1085" />
              <mxPoint x="220" y="1095" />
            </Array>
          </mxGeometry>
        </mxCell>
        <mxCell id="nDlZUgQkFuVRFbo8a9Mp-15" value="acumulación de datos sobre elementos físicos" style="text;html=1;align=center;verticalAlign=middle;resizable=0;points=[];autosize=1;strokeColor=#000000;" parent="1" vertex="1">
          <mxGeometry x="240" y="1065" width="260" height="20" as="geometry" />
        </mxCell>
        <mxCell id="nDlZUgQkFuVRFbo8a9Mp-20" value="" style="edgeStyle=orthogonalEdgeStyle;rounded=0;orthogonalLoop=1;jettySize=auto;html=1;fontSize=12;" parent="1" source="nDlZUgQkFuVRFbo8a9Mp-17" target="nDlZUgQkFuVRFbo8a9Mp-19" edge="1">
          <mxGeometry relative="1" as="geometry">
            <Array as="points">
              <mxPoint x="220" y="1105" />
              <mxPoint x="220" y="1135" />
            </Array>
          </mxGeometry>
        </mxCell>
        <mxCell id="nDlZUgQkFuVRFbo8a9Mp-17" value="elaborar e interpretar mapas" style="text;html=1;align=center;verticalAlign=middle;resizable=0;points=[];autosize=1;strokeColor=#000000;" parent="1" vertex="1">
          <mxGeometry x="240" y="1095" width="170" height="20" as="geometry" />
        </mxCell>
        <mxCell id="nDlZUgQkFuVRFbo8a9Mp-19" value="datos de población por países" style="text;html=1;align=center;verticalAlign=middle;resizable=0;points=[];autosize=1;strokeColor=#000000;" parent="1" vertex="1">
          <mxGeometry x="240" y="1125" width="180" height="20" as="geometry" />
        </mxCell>
        <mxCell id="nDlZUgQkFuVRFbo8a9Mp-21" value="" style="shape=curlyBracket;whiteSpace=wrap;html=1;rounded=1;strokeColor=#000000;strokeWidth=1;fontSize=12;direction=west;" parent="1" vertex="1">
          <mxGeometry x="505" y="1035" width="20" height="120" as="geometry" />
        </mxCell>
        <mxCell id="nDlZUgQkFuVRFbo8a9Mp-25" value="" style="edgeStyle=orthogonalEdgeStyle;rounded=0;orthogonalLoop=1;jettySize=auto;html=1;fontSize=12;" parent="1" source="nDlZUgQkFuVRFbo8a9Mp-23" target="nDlZUgQkFuVRFbo8a9Mp-24" edge="1">
          <mxGeometry relative="1" as="geometry">
            <Array as="points">
              <mxPoint x="740" y="1095" />
              <mxPoint x="740" y="1055" />
            </Array>
          </mxGeometry>
        </mxCell>
        <mxCell id="nDlZUgQkFuVRFbo8a9Mp-23" value="Se está confundiendo el &#39;instrumento&#39; &lt;br&gt;con la esencia de la disciplina" style="text;html=1;align=center;verticalAlign=middle;resizable=0;points=[];autosize=1;strokeColor=#000000;" parent="1" vertex="1">
          <mxGeometry x="525" y="1080" width="210" height="30" as="geometry" />
        </mxCell>
        <mxCell id="nDlZUgQkFuVRFbo8a9Mp-27" value="" style="edgeStyle=orthogonalEdgeStyle;rounded=0;orthogonalLoop=1;jettySize=auto;html=1;fontSize=12;" parent="1" source="nDlZUgQkFuVRFbo8a9Mp-24" target="nDlZUgQkFuVRFbo8a9Mp-26" edge="1">
          <mxGeometry relative="1" as="geometry">
            <Array as="points">
              <mxPoint x="910" y="1085" />
              <mxPoint x="910" y="1085" />
            </Array>
          </mxGeometry>
        </mxCell>
        <mxCell id="nDlZUgQkFuVRFbo8a9Mp-24" value="Si el estudio geográfico del espacio&lt;br&gt;&amp;nbsp;requiere estudios de otras disciplinas" style="text;html=1;align=center;verticalAlign=middle;resizable=0;points=[];autosize=1;strokeColor=#000000;" parent="1" vertex="1">
          <mxGeometry x="780" y="1045" width="220" height="30" as="geometry" />
        </mxCell>
        <mxCell id="nDlZUgQkFuVRFbo8a9Mp-33" value="" style="edgeStyle=orthogonalEdgeStyle;rounded=0;orthogonalLoop=1;jettySize=auto;html=1;fontSize=12;" parent="1" source="nDlZUgQkFuVRFbo8a9Mp-26" target="nDlZUgQkFuVRFbo8a9Mp-31" edge="1">
          <mxGeometry relative="1" as="geometry" />
        </mxCell>
        <mxCell id="nDlZUgQkFuVRFbo8a9Mp-42" value="" style="edgeStyle=orthogonalEdgeStyle;rounded=0;orthogonalLoop=1;jettySize=auto;html=1;fontSize=12;" parent="1" source="nDlZUgQkFuVRFbo8a9Mp-26" target="nDlZUgQkFuVRFbo8a9Mp-34" edge="1">
          <mxGeometry relative="1" as="geometry">
            <Array as="points">
              <mxPoint x="907" y="1130" />
              <mxPoint x="907" y="1130" />
            </Array>
          </mxGeometry>
        </mxCell>
        <mxCell id="nDlZUgQkFuVRFbo8a9Mp-26" value="¿Hay algo específico de la Geografía?&lt;br&gt;¿Cuál es su contenido?" style="text;html=1;align=center;verticalAlign=middle;resizable=0;points=[];autosize=1;strokeColor=#000000;" parent="1" vertex="1">
          <mxGeometry x="802" y="1090" width="220" height="30" as="geometry" />
        </mxCell>
        <mxCell id="nDlZUgQkFuVRFbo8a9Mp-31" value="&lt;b&gt;Ackerman:&lt;br&gt;&amp;nbsp;&lt;/b&gt;núcleo básico de la Geografía es estructurar nuestras mente, filtrando los fenómenos, subrayando su distribución espacial y sus correlaciones múltiples" style="rounded=1;whiteSpace=wrap;html=1;shadow=0;glass=0;sketch=0;strokeColor=#6c8ebf;strokeWidth=1;fillColor=#dae8fc;fontSize=12;" parent="1" vertex="1">
          <mxGeometry x="1100" y="1045" width="250" height="70" as="geometry" />
        </mxCell>
        <mxCell id="nDlZUgQkFuVRFbo8a9Mp-44" value="" style="edgeStyle=orthogonalEdgeStyle;rounded=0;orthogonalLoop=1;jettySize=auto;html=1;fontSize=12;" parent="1" source="nDlZUgQkFuVRFbo8a9Mp-34" target="nDlZUgQkFuVRFbo8a9Mp-43" edge="1">
          <mxGeometry relative="1" as="geometry">
            <Array as="points">
              <mxPoint x="810" y="1220" />
            </Array>
          </mxGeometry>
        </mxCell>
        <mxCell id="nDlZUgQkFuVRFbo8a9Mp-34" value="Congresos actuales aún debaten por los&lt;br&gt;&amp;nbsp;&amp;nbsp;&lt;b&gt;Principios geográficos&lt;/b&gt;" style="text;html=1;align=center;verticalAlign=middle;resizable=0;points=[];autosize=1;strokeColor=#d6b656;fillColor=#fff2cc;" parent="1" vertex="1">
          <mxGeometry x="792" y="1145" width="230" height="30" as="geometry" />
        </mxCell>
        <mxCell id="nDlZUgQkFuVRFbo8a9Mp-51" value="derivan" style="edgeStyle=orthogonalEdgeStyle;rounded=0;orthogonalLoop=1;jettySize=auto;html=1;exitX=0.064;exitY=1.063;exitDx=0;exitDy=0;entryX=0;entryY=0.5;entryDx=0;entryDy=0;fontSize=12;exitPerimeter=0;" parent="1" source="nDlZUgQkFuVRFbo8a9Mp-43" target="nDlZUgQkFuVRFbo8a9Mp-48" edge="1">
          <mxGeometry x="-0.3984" relative="1" as="geometry">
            <Array as="points">
              <mxPoint x="861" y="1260" />
              <mxPoint x="860" y="1280" />
              <mxPoint x="860" y="1320" />
            </Array>
            <mxPoint as="offset" />
          </mxGeometry>
        </mxCell>
        <mxCell id="nDlZUgQkFuVRFbo8a9Mp-43" value="&lt;b&gt;Principio básico &lt;/b&gt;o la concepción del espacio geográfico&lt;br&gt;Geografía considera los hechos/fenómenos que aprecen en la superficie terrestre en cuanto forman parte o se dan en ella" style="whiteSpace=wrap;html=1;strokeColor=#d6b656;fillColor=#fff2cc;" parent="1" vertex="1">
          <mxGeometry x="840" y="1190" width="320" height="70" as="geometry" />
        </mxCell>
        <mxCell id="nDlZUgQkFuVRFbo8a9Mp-54" value="" style="edgeStyle=orthogonalEdgeStyle;rounded=0;orthogonalLoop=1;jettySize=auto;html=1;fontSize=12;entryX=0;entryY=0.5;entryDx=0;entryDy=0;" parent="1" target="nDlZUgQkFuVRFbo8a9Mp-53" edge="1">
          <mxGeometry relative="1" as="geometry">
            <mxPoint x="860" y="1320" as="sourcePoint" />
            <Array as="points">
              <mxPoint x="860" y="1385" />
            </Array>
          </mxGeometry>
        </mxCell>
        <mxCell id="nDlZUgQkFuVRFbo8a9Mp-48" value="&lt;b&gt;Principio de localización:&lt;/b&gt; un hecho se da/aparece en un punto concreto de la superficie terrestre" style="whiteSpace=wrap;html=1;strokeColor=#d6b656;fillColor=#FFFFCC;" parent="1" vertex="1">
          <mxGeometry x="892" y="1290" width="248" height="60" as="geometry" />
        </mxCell>
        <mxCell id="nDlZUgQkFuVRFbo8a9Mp-53" value="&lt;b&gt;Principio de extensión&lt;/b&gt;: fenómeno por lo general presenta una cierta extensión" style="whiteSpace=wrap;html=1;strokeColor=#d6b656;fillColor=#FFFFCC;" parent="1" vertex="1">
          <mxGeometry x="892" y="1370" width="248" height="30" as="geometry" />
        </mxCell>
        <mxCell id="nDlZUgQkFuVRFbo8a9Mp-55" value="&lt;b&gt;Principio de conexión&lt;/b&gt;: hay que considerar las conexiones/relaciones con otros hechos del entorno o medio ambiente" style="whiteSpace=wrap;html=1;strokeColor=#d6b656;fillColor=#FFFFCC;" parent="1" vertex="1">
          <mxGeometry x="892" y="1420" width="258" height="50" as="geometry" />
        </mxCell>
        <mxCell id="nDlZUgQkFuVRFbo8a9Mp-56" value="" style="shape=curlyBracket;whiteSpace=wrap;html=1;rounded=1;strokeColor=#000000;strokeWidth=1;fontSize=12;direction=west;" parent="1" vertex="1">
          <mxGeometry x="1140" y="1290" width="20" height="110" as="geometry" />
        </mxCell>
        <mxCell id="nDlZUgQkFuVRFbo8a9Mp-57" value="la presentación de un hecho, sus &lt;br&gt;características, localización y extensión&amp;nbsp;&lt;br&gt;tiene un carácter descriptivo" style="text;html=1;align=center;verticalAlign=middle;resizable=0;points=[];autosize=1;fontSize=12;" parent="1" vertex="1">
          <mxGeometry x="1160" y="1320" width="230" height="50" as="geometry" />
        </mxCell>
        <mxCell id="nDlZUgQkFuVRFbo8a9Mp-58" value="&lt;b&gt;Principio de globalidad territorial&lt;/b&gt;: no hay que considerar los hechos de forma aislada &amp;gt; tener en cuenta las analogías que pueden presentarse entre fenómenos de distintas partes del mundo &lt;b&gt;(E. de Martonne)&lt;/b&gt;" style="whiteSpace=wrap;html=1;strokeColor=#d6b656;fillColor=#FFFFCC;" parent="1" vertex="1">
          <mxGeometry x="893" y="1490" width="267" height="80" as="geometry" />
        </mxCell>
        <mxCell id="nDlZUgQkFuVRFbo8a9Mp-59" value="" style="edgeStyle=orthogonalEdgeStyle;rounded=0;orthogonalLoop=1;jettySize=auto;html=1;fontSize=12;entryX=0;entryY=0.5;entryDx=0;entryDy=0;" parent="1" edge="1">
          <mxGeometry relative="1" as="geometry">
            <mxPoint x="860" y="1380" as="sourcePoint" />
            <mxPoint x="892" y="1445" as="targetPoint" />
            <Array as="points">
              <mxPoint x="860" y="1445" />
            </Array>
          </mxGeometry>
        </mxCell>
        <mxCell id="nDlZUgQkFuVRFbo8a9Mp-60" value="" style="edgeStyle=orthogonalEdgeStyle;rounded=0;orthogonalLoop=1;jettySize=auto;html=1;fontSize=12;entryX=0;entryY=0.5;entryDx=0;entryDy=0;" parent="1" edge="1">
          <mxGeometry relative="1" as="geometry">
            <mxPoint x="860" y="1440" as="sourcePoint" />
            <mxPoint x="892" y="1525" as="targetPoint" />
            <Array as="points">
              <mxPoint x="860" y="1525" />
            </Array>
          </mxGeometry>
        </mxCell>
      </root>
    </mxGraphModel>
  </diagram>
  <diagram id="DDbtJH6xZMfhXgVmU0nl" name="Page-2">
    <mxGraphModel dx="4152" dy="2340" grid="1" gridSize="10" guides="1" tooltips="1" connect="1" arrows="1" fold="1" page="1" pageScale="1" pageWidth="827" pageHeight="1169" math="0" shadow="0">
      <root>
        <mxCell id="qbb-ZSPnhFNRF_dBAjSB-0" />
        <mxCell id="qbb-ZSPnhFNRF_dBAjSB-1" parent="qbb-ZSPnhFNRF_dBAjSB-0" />
        <mxCell id="qbb-ZSPnhFNRF_dBAjSB-2" value="" style="edgeStyle=elbowEdgeStyle;rounded=0;orthogonalLoop=1;jettySize=auto;html=1;fontSize=12;entryX=-0.006;entryY=0.572;entryDx=0;entryDy=0;entryPerimeter=0;" edge="1" parent="qbb-ZSPnhFNRF_dBAjSB-1" source="qbb-ZSPnhFNRF_dBAjSB-3" target="qbb-ZSPnhFNRF_dBAjSB-5">
          <mxGeometry relative="1" as="geometry">
            <mxPoint x="260" y="195" as="targetPoint" />
          </mxGeometry>
        </mxCell>
        <mxCell id="qbb-ZSPnhFNRF_dBAjSB-35" value="" style="edgeStyle=elbowEdgeStyle;rounded=0;orthogonalLoop=1;jettySize=auto;html=1;" edge="1" parent="qbb-ZSPnhFNRF_dBAjSB-1" source="qbb-ZSPnhFNRF_dBAjSB-3" target="qbb-ZSPnhFNRF_dBAjSB-34">
          <mxGeometry relative="1" as="geometry">
            <Array as="points">
              <mxPoint x="240" y="570" />
            </Array>
          </mxGeometry>
        </mxCell>
        <mxCell id="qbb-ZSPnhFNRF_dBAjSB-3" value="1º&amp;nbsp; &lt;br&gt;Concepción del espacio geográfico" style="rounded=1;whiteSpace=wrap;html=1;" vertex="1" parent="qbb-ZSPnhFNRF_dBAjSB-1">
          <mxGeometry x="100" y="445" width="110" height="50" as="geometry" />
        </mxCell>
        <mxCell id="qbb-ZSPnhFNRF_dBAjSB-4" value="" style="edgeStyle=elbowEdgeStyle;rounded=0;orthogonalLoop=1;jettySize=auto;html=1;fontSize=12;" edge="1" parent="qbb-ZSPnhFNRF_dBAjSB-1" source="qbb-ZSPnhFNRF_dBAjSB-5" target="qbb-ZSPnhFNRF_dBAjSB-7">
          <mxGeometry relative="1" as="geometry">
            <Array as="points">
              <mxPoint x="300" y="120" />
              <mxPoint x="280" y="130" />
            </Array>
          </mxGeometry>
        </mxCell>
        <mxCell id="qbb-ZSPnhFNRF_dBAjSB-5" value="Actualidad se relaciona el trabajo del geógrafo con:" style="text;html=1;align=center;verticalAlign=middle;resizable=0;points=[];autosize=1;strokeColor=#000000;" vertex="1" parent="qbb-ZSPnhFNRF_dBAjSB-1">
          <mxGeometry x="280" y="80" width="290" height="20" as="geometry" />
        </mxCell>
        <mxCell id="qbb-ZSPnhFNRF_dBAjSB-6" value="" style="edgeStyle=elbowEdgeStyle;rounded=0;orthogonalLoop=1;jettySize=auto;html=1;fontSize=12;" edge="1" parent="qbb-ZSPnhFNRF_dBAjSB-1" target="qbb-ZSPnhFNRF_dBAjSB-9">
          <mxGeometry relative="1" as="geometry">
            <mxPoint x="300" y="100" as="sourcePoint" />
            <Array as="points">
              <mxPoint x="300" y="130" />
              <mxPoint x="300" y="140" />
            </Array>
          </mxGeometry>
        </mxCell>
        <mxCell id="qbb-ZSPnhFNRF_dBAjSB-7" value="acumulación de datos sobre elementos físicos" style="text;html=1;align=center;verticalAlign=middle;resizable=0;points=[];autosize=1;strokeColor=#000000;" vertex="1" parent="qbb-ZSPnhFNRF_dBAjSB-1">
          <mxGeometry x="320" y="110" width="260" height="20" as="geometry" />
        </mxCell>
        <mxCell id="qbb-ZSPnhFNRF_dBAjSB-8" value="" style="edgeStyle=orthogonalEdgeStyle;rounded=0;orthogonalLoop=1;jettySize=auto;html=1;fontSize=12;" edge="1" parent="qbb-ZSPnhFNRF_dBAjSB-1" source="qbb-ZSPnhFNRF_dBAjSB-9" target="qbb-ZSPnhFNRF_dBAjSB-10">
          <mxGeometry relative="1" as="geometry">
            <Array as="points">
              <mxPoint x="300" y="150" />
              <mxPoint x="300" y="180" />
            </Array>
          </mxGeometry>
        </mxCell>
        <mxCell id="qbb-ZSPnhFNRF_dBAjSB-9" value="elaborar e interpretar mapas" style="text;html=1;align=center;verticalAlign=middle;resizable=0;points=[];autosize=1;strokeColor=#000000;" vertex="1" parent="qbb-ZSPnhFNRF_dBAjSB-1">
          <mxGeometry x="320" y="140" width="170" height="20" as="geometry" />
        </mxCell>
        <mxCell id="qbb-ZSPnhFNRF_dBAjSB-10" value="datos de población por países" style="text;html=1;align=center;verticalAlign=middle;resizable=0;points=[];autosize=1;strokeColor=#000000;" vertex="1" parent="qbb-ZSPnhFNRF_dBAjSB-1">
          <mxGeometry x="320" y="170" width="180" height="20" as="geometry" />
        </mxCell>
        <mxCell id="qbb-ZSPnhFNRF_dBAjSB-11" value="" style="shape=curlyBracket;whiteSpace=wrap;html=1;rounded=1;strokeColor=#000000;strokeWidth=1;fontSize=12;direction=west;" vertex="1" parent="qbb-ZSPnhFNRF_dBAjSB-1">
          <mxGeometry x="585" y="80" width="20" height="120" as="geometry" />
        </mxCell>
        <mxCell id="qbb-ZSPnhFNRF_dBAjSB-12" value="" style="edgeStyle=orthogonalEdgeStyle;rounded=0;orthogonalLoop=1;jettySize=auto;html=1;fontSize=12;" edge="1" parent="qbb-ZSPnhFNRF_dBAjSB-1" source="qbb-ZSPnhFNRF_dBAjSB-13" target="qbb-ZSPnhFNRF_dBAjSB-15">
          <mxGeometry relative="1" as="geometry">
            <Array as="points">
              <mxPoint x="820" y="140" />
              <mxPoint x="820" y="100" />
            </Array>
          </mxGeometry>
        </mxCell>
        <mxCell id="qbb-ZSPnhFNRF_dBAjSB-13" value="Se está confundiendo el &#39;instrumento&#39; &lt;br&gt;con la esencia de la disciplina" style="text;html=1;align=center;verticalAlign=middle;resizable=0;points=[];autosize=1;strokeColor=#000000;" vertex="1" parent="qbb-ZSPnhFNRF_dBAjSB-1">
          <mxGeometry x="605" y="125" width="210" height="30" as="geometry" />
        </mxCell>
        <mxCell id="qbb-ZSPnhFNRF_dBAjSB-14" value="" style="edgeStyle=orthogonalEdgeStyle;rounded=0;orthogonalLoop=1;jettySize=auto;html=1;fontSize=12;" edge="1" parent="qbb-ZSPnhFNRF_dBAjSB-1" source="qbb-ZSPnhFNRF_dBAjSB-15" target="qbb-ZSPnhFNRF_dBAjSB-18">
          <mxGeometry relative="1" as="geometry">
            <Array as="points">
              <mxPoint x="990" y="130" />
              <mxPoint x="990" y="130" />
            </Array>
          </mxGeometry>
        </mxCell>
        <mxCell id="qbb-ZSPnhFNRF_dBAjSB-15" value="Si el estudio geográfico del espacio&lt;br&gt;&amp;nbsp;requiere estudios de otras disciplinas" style="text;html=1;align=center;verticalAlign=middle;resizable=0;points=[];autosize=1;strokeColor=#000000;" vertex="1" parent="qbb-ZSPnhFNRF_dBAjSB-1">
          <mxGeometry x="860" y="90" width="220" height="30" as="geometry" />
        </mxCell>
        <mxCell id="qbb-ZSPnhFNRF_dBAjSB-16" value="" style="edgeStyle=orthogonalEdgeStyle;rounded=0;orthogonalLoop=1;jettySize=auto;html=1;fontSize=12;" edge="1" parent="qbb-ZSPnhFNRF_dBAjSB-1" source="qbb-ZSPnhFNRF_dBAjSB-18" target="qbb-ZSPnhFNRF_dBAjSB-19">
          <mxGeometry relative="1" as="geometry" />
        </mxCell>
        <mxCell id="qbb-ZSPnhFNRF_dBAjSB-17" value="" style="edgeStyle=orthogonalEdgeStyle;rounded=0;orthogonalLoop=1;jettySize=auto;html=1;fontSize=12;" edge="1" parent="qbb-ZSPnhFNRF_dBAjSB-1" source="qbb-ZSPnhFNRF_dBAjSB-18" target="qbb-ZSPnhFNRF_dBAjSB-21">
          <mxGeometry relative="1" as="geometry">
            <Array as="points">
              <mxPoint x="987" y="175" />
              <mxPoint x="987" y="175" />
            </Array>
          </mxGeometry>
        </mxCell>
        <mxCell id="qbb-ZSPnhFNRF_dBAjSB-18" value="¿Hay algo específico de la Geografía?&lt;br&gt;¿Cuál es su contenido?" style="text;html=1;align=center;verticalAlign=middle;resizable=0;points=[];autosize=1;strokeColor=#000000;" vertex="1" parent="qbb-ZSPnhFNRF_dBAjSB-1">
          <mxGeometry x="882" y="135" width="220" height="30" as="geometry" />
        </mxCell>
        <mxCell id="qbb-ZSPnhFNRF_dBAjSB-19" value="&lt;b&gt;Ackerman:&lt;br&gt;&amp;nbsp;&lt;/b&gt;núcleo básico de la Geografía es estructurar nuestras mente, filtrando los fenómenos, subrayando su distribución espacial y sus correlaciones múltiples" style="rounded=1;whiteSpace=wrap;html=1;shadow=0;glass=0;sketch=0;strokeColor=#6c8ebf;strokeWidth=1;fillColor=#dae8fc;fontSize=12;" vertex="1" parent="qbb-ZSPnhFNRF_dBAjSB-1">
          <mxGeometry x="1180" y="90" width="250" height="70" as="geometry" />
        </mxCell>
        <mxCell id="qbb-ZSPnhFNRF_dBAjSB-20" value="" style="edgeStyle=orthogonalEdgeStyle;rounded=0;orthogonalLoop=1;jettySize=auto;html=1;fontSize=12;" edge="1" parent="qbb-ZSPnhFNRF_dBAjSB-1" source="qbb-ZSPnhFNRF_dBAjSB-21" target="qbb-ZSPnhFNRF_dBAjSB-23">
          <mxGeometry relative="1" as="geometry">
            <Array as="points">
              <mxPoint x="890" y="265" />
            </Array>
          </mxGeometry>
        </mxCell>
        <mxCell id="qbb-ZSPnhFNRF_dBAjSB-21" value="Congresos actuales aún debaten por los&lt;br&gt;&amp;nbsp;&amp;nbsp;&lt;b&gt;Principios geográficos&lt;/b&gt;" style="text;html=1;align=center;verticalAlign=middle;resizable=0;points=[];autosize=1;strokeColor=#d6b656;fillColor=#fff2cc;" vertex="1" parent="qbb-ZSPnhFNRF_dBAjSB-1">
          <mxGeometry x="872" y="190" width="230" height="30" as="geometry" />
        </mxCell>
        <mxCell id="qbb-ZSPnhFNRF_dBAjSB-22" value="derivan" style="edgeStyle=orthogonalEdgeStyle;rounded=0;orthogonalLoop=1;jettySize=auto;html=1;exitX=0.5;exitY=1;exitDx=0;exitDy=0;entryX=0;entryY=0.5;entryDx=0;entryDy=0;fontSize=12;" edge="1" parent="qbb-ZSPnhFNRF_dBAjSB-1" source="qbb-ZSPnhFNRF_dBAjSB-23" target="qbb-ZSPnhFNRF_dBAjSB-25">
          <mxGeometry x="-0.0909" relative="1" as="geometry">
            <Array as="points">
              <mxPoint x="1030" y="305" />
              <mxPoint x="1030" y="365" />
              <mxPoint x="1090" y="365" />
              <mxPoint x="1090" y="370" />
            </Array>
            <mxPoint y="-1" as="offset" />
          </mxGeometry>
        </mxCell>
        <mxCell id="qbb-ZSPnhFNRF_dBAjSB-33" value="surgen gracias a la" style="edgeStyle=elbowEdgeStyle;rounded=0;orthogonalLoop=1;jettySize=auto;html=1;exitX=0;exitY=1;exitDx=0;exitDy=0;entryX=0.5;entryY=0;entryDx=0;entryDy=0;elbow=vertical;" edge="1" parent="qbb-ZSPnhFNRF_dBAjSB-1" source="qbb-ZSPnhFNRF_dBAjSB-23" target="qbb-ZSPnhFNRF_dBAjSB-34">
          <mxGeometry relative="1" as="geometry">
            <mxPoint x="410" y="470" as="targetPoint" />
          </mxGeometry>
        </mxCell>
        <mxCell id="qbb-ZSPnhFNRF_dBAjSB-23" value="&lt;b&gt;Principio básico &lt;/b&gt;o la concepción del espacio geográfico&lt;br&gt;Geografía considera los hechos/fenómenos que aprecen en la superficie terrestre en cuanto forman parte o se dan en ella" style="whiteSpace=wrap;html=1;strokeColor=#d6b656;fillColor=#fff2cc;" vertex="1" parent="qbb-ZSPnhFNRF_dBAjSB-1">
          <mxGeometry x="920" y="235" width="320" height="70" as="geometry" />
        </mxCell>
        <mxCell id="qbb-ZSPnhFNRF_dBAjSB-24" value="" style="edgeStyle=orthogonalEdgeStyle;rounded=0;orthogonalLoop=1;jettySize=auto;html=1;fontSize=12;entryX=0;entryY=0.5;entryDx=0;entryDy=0;" edge="1" parent="qbb-ZSPnhFNRF_dBAjSB-1" target="qbb-ZSPnhFNRF_dBAjSB-26">
          <mxGeometry relative="1" as="geometry">
            <mxPoint x="1070" y="370" as="sourcePoint" />
            <Array as="points">
              <mxPoint x="1070" y="435" />
            </Array>
          </mxGeometry>
        </mxCell>
        <mxCell id="qbb-ZSPnhFNRF_dBAjSB-25" value="&lt;b&gt;Principio de localización:&lt;/b&gt; un hecho se da/aparece en un punto concreto de la superficie terrestre" style="whiteSpace=wrap;html=1;strokeColor=#d6b656;fillColor=#FFFFCC;" vertex="1" parent="qbb-ZSPnhFNRF_dBAjSB-1">
          <mxGeometry x="1102" y="340" width="248" height="60" as="geometry" />
        </mxCell>
        <mxCell id="qbb-ZSPnhFNRF_dBAjSB-26" value="&lt;b&gt;Principio de extensión&lt;/b&gt;: fenómeno por lo general presenta una cierta extensión" style="whiteSpace=wrap;html=1;strokeColor=#d6b656;fillColor=#FFFFCC;" vertex="1" parent="qbb-ZSPnhFNRF_dBAjSB-1">
          <mxGeometry x="1102" y="420" width="248" height="30" as="geometry" />
        </mxCell>
        <mxCell id="qbb-ZSPnhFNRF_dBAjSB-27" value="&lt;b&gt;Principio de conexión&lt;/b&gt;: hay que considerar las conexiones/relaciones con otros hechos del entorno o medio ambiente" style="whiteSpace=wrap;html=1;strokeColor=#d6b656;fillColor=#FFFFCC;" vertex="1" parent="qbb-ZSPnhFNRF_dBAjSB-1">
          <mxGeometry x="1102" y="470" width="258" height="50" as="geometry" />
        </mxCell>
        <mxCell id="qbb-ZSPnhFNRF_dBAjSB-28" value="" style="shape=curlyBracket;whiteSpace=wrap;html=1;rounded=1;strokeColor=#000000;strokeWidth=1;fontSize=12;direction=west;" vertex="1" parent="qbb-ZSPnhFNRF_dBAjSB-1">
          <mxGeometry x="1350" y="340" width="20" height="110" as="geometry" />
        </mxCell>
        <mxCell id="qbb-ZSPnhFNRF_dBAjSB-29" value="la presentación de un hecho, sus &lt;br&gt;características, localización y extensión&amp;nbsp;&lt;br&gt;tiene un carácter descriptivo" style="text;html=1;align=center;verticalAlign=middle;resizable=0;points=[];autosize=1;fontSize=12;" vertex="1" parent="qbb-ZSPnhFNRF_dBAjSB-1">
          <mxGeometry x="1370" y="370" width="230" height="50" as="geometry" />
        </mxCell>
        <mxCell id="qbb-ZSPnhFNRF_dBAjSB-30" value="&lt;b&gt;Principio de globalidad territorial&lt;/b&gt;: no hay que considerar los hechos de forma aislada &amp;gt; tener en cuenta las analogías que pueden presentarse entre fenómenos de distintas partes del mundo &lt;b&gt;(E. de Martonne)&lt;/b&gt;" style="whiteSpace=wrap;html=1;strokeColor=#d6b656;fillColor=#FFFFCC;" vertex="1" parent="qbb-ZSPnhFNRF_dBAjSB-1">
          <mxGeometry x="1103" y="540" width="267" height="80" as="geometry" />
        </mxCell>
        <mxCell id="qbb-ZSPnhFNRF_dBAjSB-31" value="" style="edgeStyle=orthogonalEdgeStyle;rounded=0;orthogonalLoop=1;jettySize=auto;html=1;fontSize=12;entryX=0;entryY=0.5;entryDx=0;entryDy=0;" edge="1" parent="qbb-ZSPnhFNRF_dBAjSB-1">
          <mxGeometry relative="1" as="geometry">
            <mxPoint x="1070" y="430" as="sourcePoint" />
            <mxPoint x="1102" y="495" as="targetPoint" />
            <Array as="points">
              <mxPoint x="1070" y="495" />
            </Array>
          </mxGeometry>
        </mxCell>
        <mxCell id="qbb-ZSPnhFNRF_dBAjSB-32" value="" style="edgeStyle=orthogonalEdgeStyle;rounded=0;orthogonalLoop=1;jettySize=auto;html=1;fontSize=12;entryX=0;entryY=0.5;entryDx=0;entryDy=0;" edge="1" parent="qbb-ZSPnhFNRF_dBAjSB-1">
          <mxGeometry relative="1" as="geometry">
            <mxPoint x="1070" y="490" as="sourcePoint" />
            <mxPoint x="1102" y="575" as="targetPoint" />
            <Array as="points">
              <mxPoint x="1070" y="575" />
            </Array>
          </mxGeometry>
        </mxCell>
        <mxCell id="qbb-ZSPnhFNRF_dBAjSB-37" value="" style="edgeStyle=elbowEdgeStyle;rounded=0;orthogonalLoop=1;jettySize=auto;html=1;" edge="1" parent="qbb-ZSPnhFNRF_dBAjSB-1" source="qbb-ZSPnhFNRF_dBAjSB-34" target="qbb-ZSPnhFNRF_dBAjSB-36">
          <mxGeometry relative="1" as="geometry" />
        </mxCell>
        <mxCell id="qbb-ZSPnhFNRF_dBAjSB-34" value="Evolución temporal de la disciplina" style="rounded=1;whiteSpace=wrap;html=1;" vertex="1" parent="qbb-ZSPnhFNRF_dBAjSB-1">
          <mxGeometry x="260" y="690" width="110" height="50" as="geometry" />
        </mxCell>
        <mxCell id="qbb-ZSPnhFNRF_dBAjSB-39" value="" style="edgeStyle=elbowEdgeStyle;rounded=0;orthogonalLoop=1;jettySize=auto;html=1;entryX=0;entryY=0.5;entryDx=0;entryDy=0;" edge="1" parent="qbb-ZSPnhFNRF_dBAjSB-1" source="qbb-ZSPnhFNRF_dBAjSB-36" target="qbb-ZSPnhFNRF_dBAjSB-38">
          <mxGeometry relative="1" as="geometry">
            <Array as="points">
              <mxPoint x="590" y="770" />
              <mxPoint x="590" y="630" />
              <mxPoint x="610" y="640" />
              <mxPoint x="630" y="735" />
              <mxPoint x="640" y="705" />
              <mxPoint x="450" y="680" />
            </Array>
          </mxGeometry>
        </mxCell>
        <mxCell id="XOTU3VeHHJmu79t8mAcy-9" value="" style="edgeStyle=elbowEdgeStyle;rounded=0;orthogonalLoop=1;jettySize=auto;html=1;" edge="1" parent="qbb-ZSPnhFNRF_dBAjSB-1" source="qbb-ZSPnhFNRF_dBAjSB-36" target="XOTU3VeHHJmu79t8mAcy-8">
          <mxGeometry relative="1" as="geometry">
            <Array as="points">
              <mxPoint x="588" y="1000" />
            </Array>
          </mxGeometry>
        </mxCell>
        <mxCell id="qbb-ZSPnhFNRF_dBAjSB-36" value="Tres grandes períodos de la historia de la geografía" style="whiteSpace=wrap;html=1;rounded=1;" vertex="1" parent="qbb-ZSPnhFNRF_dBAjSB-1">
          <mxGeometry x="350" y="850" width="185" height="60" as="geometry" />
        </mxCell>
        <mxCell id="qbb-ZSPnhFNRF_dBAjSB-47" value="" style="edgeStyle=elbowEdgeStyle;rounded=0;orthogonalLoop=1;jettySize=auto;html=1;" edge="1" parent="qbb-ZSPnhFNRF_dBAjSB-1" source="qbb-ZSPnhFNRF_dBAjSB-38" target="qbb-ZSPnhFNRF_dBAjSB-41">
          <mxGeometry relative="1" as="geometry">
            <Array as="points">
              <mxPoint x="660" y="628" />
            </Array>
          </mxGeometry>
        </mxCell>
        <mxCell id="qbb-ZSPnhFNRF_dBAjSB-49" value="" style="edgeStyle=elbowEdgeStyle;rounded=0;orthogonalLoop=1;jettySize=auto;html=1;" edge="1" parent="qbb-ZSPnhFNRF_dBAjSB-1" source="qbb-ZSPnhFNRF_dBAjSB-38" target="qbb-ZSPnhFNRF_dBAjSB-48">
          <mxGeometry relative="1" as="geometry">
            <Array as="points">
              <mxPoint x="660" y="630" />
            </Array>
          </mxGeometry>
        </mxCell>
        <mxCell id="qbb-ZSPnhFNRF_dBAjSB-56" value="" style="edgeStyle=elbowEdgeStyle;rounded=0;orthogonalLoop=1;jettySize=auto;html=1;" edge="1" parent="qbb-ZSPnhFNRF_dBAjSB-1" source="qbb-ZSPnhFNRF_dBAjSB-38" target="qbb-ZSPnhFNRF_dBAjSB-55">
          <mxGeometry relative="1" as="geometry">
            <Array as="points">
              <mxPoint x="660" y="630" />
            </Array>
          </mxGeometry>
        </mxCell>
        <mxCell id="qbb-ZSPnhFNRF_dBAjSB-38" value="Del mundo clásico al siglo XVIII" style="whiteSpace=wrap;html=1;rounded=1;fillColor=#f8cecc;strokeColor=#b85450;" vertex="1" parent="qbb-ZSPnhFNRF_dBAjSB-1">
          <mxGeometry x="610" y="585" width="185" height="30" as="geometry" />
        </mxCell>
        <mxCell id="qbb-ZSPnhFNRF_dBAjSB-44" value="" style="edgeStyle=elbowEdgeStyle;rounded=0;orthogonalLoop=1;jettySize=auto;html=1;" edge="1" parent="qbb-ZSPnhFNRF_dBAjSB-1" source="qbb-ZSPnhFNRF_dBAjSB-41" target="qbb-ZSPnhFNRF_dBAjSB-43">
          <mxGeometry relative="1" as="geometry" />
        </mxCell>
        <mxCell id="qbb-ZSPnhFNRF_dBAjSB-41" value="Griegos dieron nombre a la geografía&lt;br&gt;" style="whiteSpace=wrap;html=1;rounded=0;" vertex="1" parent="qbb-ZSPnhFNRF_dBAjSB-1">
          <mxGeometry x="687" y="640" width="185" height="30" as="geometry" />
        </mxCell>
        <mxCell id="qbb-ZSPnhFNRF_dBAjSB-43" value="Destacan:&lt;br&gt;Hiparco, Ptolomeo, Herodoto" style="whiteSpace=wrap;html=1;rounded=0;" vertex="1" parent="qbb-ZSPnhFNRF_dBAjSB-1">
          <mxGeometry x="895" y="640" width="185" height="30" as="geometry" />
        </mxCell>
        <mxCell id="qbb-ZSPnhFNRF_dBAjSB-52" value="" style="edgeStyle=elbowEdgeStyle;rounded=0;orthogonalLoop=1;jettySize=auto;html=1;" edge="1" parent="qbb-ZSPnhFNRF_dBAjSB-1" source="qbb-ZSPnhFNRF_dBAjSB-48" target="qbb-ZSPnhFNRF_dBAjSB-50">
          <mxGeometry relative="1" as="geometry">
            <Array as="points">
              <mxPoint x="700" y="750" />
              <mxPoint x="700" y="740" />
            </Array>
          </mxGeometry>
        </mxCell>
        <mxCell id="qbb-ZSPnhFNRF_dBAjSB-54" value="" style="edgeStyle=elbowEdgeStyle;rounded=0;orthogonalLoop=1;jettySize=auto;html=1;" edge="1" parent="qbb-ZSPnhFNRF_dBAjSB-1" source="qbb-ZSPnhFNRF_dBAjSB-48" target="qbb-ZSPnhFNRF_dBAjSB-53">
          <mxGeometry relative="1" as="geometry">
            <Array as="points">
              <mxPoint x="700" y="785" />
            </Array>
          </mxGeometry>
        </mxCell>
        <mxCell id="qbb-ZSPnhFNRF_dBAjSB-48" value="Geógrafos latinos" style="whiteSpace=wrap;html=1;rounded=0;" vertex="1" parent="qbb-ZSPnhFNRF_dBAjSB-1">
          <mxGeometry x="687" y="700" width="185" height="30" as="geometry" />
        </mxCell>
        <mxCell id="qbb-ZSPnhFNRF_dBAjSB-50" value="Plinio por su biogeografía" style="whiteSpace=wrap;html=1;rounded=0;" vertex="1" parent="qbb-ZSPnhFNRF_dBAjSB-1">
          <mxGeometry x="735" y="740" width="185" height="30" as="geometry" />
        </mxCell>
        <mxCell id="qbb-ZSPnhFNRF_dBAjSB-53" value="Pomponio Mela &amp;gt; geopolítico" style="whiteSpace=wrap;html=1;rounded=0;" vertex="1" parent="qbb-ZSPnhFNRF_dBAjSB-1">
          <mxGeometry x="735" y="780" width="185" height="30" as="geometry" />
        </mxCell>
        <mxCell id="qbb-ZSPnhFNRF_dBAjSB-60" value="" style="edgeStyle=elbowEdgeStyle;rounded=0;orthogonalLoop=1;jettySize=auto;html=1;" edge="1" parent="qbb-ZSPnhFNRF_dBAjSB-1" source="qbb-ZSPnhFNRF_dBAjSB-55" target="qbb-ZSPnhFNRF_dBAjSB-59">
          <mxGeometry relative="1" as="geometry" />
        </mxCell>
        <mxCell id="qbb-ZSPnhFNRF_dBAjSB-62" value="" style="edgeStyle=elbowEdgeStyle;rounded=0;orthogonalLoop=1;jettySize=auto;html=1;" edge="1" parent="qbb-ZSPnhFNRF_dBAjSB-1" source="qbb-ZSPnhFNRF_dBAjSB-55" target="qbb-ZSPnhFNRF_dBAjSB-61">
          <mxGeometry relative="1" as="geometry" />
        </mxCell>
        <mxCell id="qbb-ZSPnhFNRF_dBAjSB-64" value="" style="edgeStyle=elbowEdgeStyle;rounded=0;orthogonalLoop=1;jettySize=auto;html=1;" edge="1" parent="qbb-ZSPnhFNRF_dBAjSB-1" source="qbb-ZSPnhFNRF_dBAjSB-55" target="qbb-ZSPnhFNRF_dBAjSB-63">
          <mxGeometry relative="1" as="geometry">
            <Array as="points">
              <mxPoint x="660" y="900" />
            </Array>
          </mxGeometry>
        </mxCell>
        <mxCell id="qbb-ZSPnhFNRF_dBAjSB-55" value="Edad Media" style="whiteSpace=wrap;html=1;rounded=0;" vertex="1" parent="qbb-ZSPnhFNRF_dBAjSB-1">
          <mxGeometry x="680" y="850" width="163" height="30" as="geometry" />
        </mxCell>
        <mxCell id="qbb-ZSPnhFNRF_dBAjSB-59" value="Dogmatismo cristiano frenó desarrollo de la Geografía &amp;gt; sustituida por cosmografía religiosa" style="whiteSpace=wrap;html=1;rounded=0;" vertex="1" parent="qbb-ZSPnhFNRF_dBAjSB-1">
          <mxGeometry x="888.5" y="820" width="191.5" height="50" as="geometry" />
        </mxCell>
        <mxCell id="qbb-ZSPnhFNRF_dBAjSB-61" value="Mundo árabe &amp;gt; orientación al sur de los mapas (Al Idrisi)" style="whiteSpace=wrap;html=1;rounded=0;" vertex="1" parent="qbb-ZSPnhFNRF_dBAjSB-1">
          <mxGeometry x="888.5" y="890" width="163" height="30" as="geometry" />
        </mxCell>
        <mxCell id="qbb-ZSPnhFNRF_dBAjSB-67" value="" style="edgeStyle=elbowEdgeStyle;rounded=0;orthogonalLoop=1;jettySize=auto;html=1;" edge="1" parent="qbb-ZSPnhFNRF_dBAjSB-1" source="qbb-ZSPnhFNRF_dBAjSB-63" target="qbb-ZSPnhFNRF_dBAjSB-66">
          <mxGeometry relative="1" as="geometry" />
        </mxCell>
        <mxCell id="qbb-ZSPnhFNRF_dBAjSB-69" value="" style="edgeStyle=elbowEdgeStyle;rounded=0;orthogonalLoop=1;jettySize=auto;html=1;" edge="1" parent="qbb-ZSPnhFNRF_dBAjSB-1" source="qbb-ZSPnhFNRF_dBAjSB-63" target="qbb-ZSPnhFNRF_dBAjSB-68">
          <mxGeometry relative="1" as="geometry">
            <Array as="points">
              <mxPoint x="660" y="1010" />
            </Array>
          </mxGeometry>
        </mxCell>
        <mxCell id="qbb-ZSPnhFNRF_dBAjSB-63" value="Renacimiento" style="whiteSpace=wrap;html=1;rounded=0;" vertex="1" parent="qbb-ZSPnhFNRF_dBAjSB-1">
          <mxGeometry x="680" y="960" width="163" height="30" as="geometry" />
        </mxCell>
        <mxCell id="qbb-ZSPnhFNRF_dBAjSB-66" value="Necesidad de nuevos mapas para moverse por el nuevo mundo. Destaca el &#39;&lt;b&gt;Atlas&#39; de Mercator (1595)&lt;/b&gt;" style="whiteSpace=wrap;html=1;rounded=0;fillColor=#dae8fc;strokeColor=#6c8ebf;" vertex="1" parent="qbb-ZSPnhFNRF_dBAjSB-1">
          <mxGeometry x="873.5" y="945" width="178" height="60" as="geometry" />
        </mxCell>
        <mxCell id="qbb-ZSPnhFNRF_dBAjSB-72" value="" style="edgeStyle=elbowEdgeStyle;rounded=0;orthogonalLoop=1;jettySize=auto;html=1;" edge="1" parent="qbb-ZSPnhFNRF_dBAjSB-1" source="qbb-ZSPnhFNRF_dBAjSB-68" target="qbb-ZSPnhFNRF_dBAjSB-71">
          <mxGeometry relative="1" as="geometry" />
        </mxCell>
        <mxCell id="XOTU3VeHHJmu79t8mAcy-1" value="" style="edgeStyle=elbowEdgeStyle;rounded=0;orthogonalLoop=1;jettySize=auto;html=1;" edge="1" parent="qbb-ZSPnhFNRF_dBAjSB-1" source="qbb-ZSPnhFNRF_dBAjSB-68" target="XOTU3VeHHJmu79t8mAcy-0">
          <mxGeometry relative="1" as="geometry">
            <Array as="points">
              <mxPoint x="660" y="1070" />
            </Array>
          </mxGeometry>
        </mxCell>
        <mxCell id="qbb-ZSPnhFNRF_dBAjSB-68" value="Siglo XVII" style="whiteSpace=wrap;html=1;rounded=0;" vertex="1" parent="qbb-ZSPnhFNRF_dBAjSB-1">
          <mxGeometry x="680" y="1030" width="163" height="30" as="geometry" />
        </mxCell>
        <mxCell id="qbb-ZSPnhFNRF_dBAjSB-74" value="" style="edgeStyle=elbowEdgeStyle;rounded=0;orthogonalLoop=1;jettySize=auto;html=1;" edge="1" parent="qbb-ZSPnhFNRF_dBAjSB-1" source="qbb-ZSPnhFNRF_dBAjSB-71" target="qbb-ZSPnhFNRF_dBAjSB-73">
          <mxGeometry relative="1" as="geometry" />
        </mxCell>
        <mxCell id="qbb-ZSPnhFNRF_dBAjSB-71" value="Triunfo del heliocentrismo en la revolución científica" style="whiteSpace=wrap;html=1;rounded=0;" vertex="1" parent="qbb-ZSPnhFNRF_dBAjSB-1">
          <mxGeometry x="870" y="1030" width="163" height="30" as="geometry" />
        </mxCell>
        <mxCell id="qbb-ZSPnhFNRF_dBAjSB-76" value="" style="edgeStyle=elbowEdgeStyle;rounded=0;orthogonalLoop=1;jettySize=auto;html=1;" edge="1" parent="qbb-ZSPnhFNRF_dBAjSB-1" source="qbb-ZSPnhFNRF_dBAjSB-73" target="qbb-ZSPnhFNRF_dBAjSB-75">
          <mxGeometry relative="1" as="geometry" />
        </mxCell>
        <mxCell id="qbb-ZSPnhFNRF_dBAjSB-78" value="" style="edgeStyle=elbowEdgeStyle;rounded=0;orthogonalLoop=1;jettySize=auto;html=1;" edge="1" parent="qbb-ZSPnhFNRF_dBAjSB-1" source="qbb-ZSPnhFNRF_dBAjSB-73" target="qbb-ZSPnhFNRF_dBAjSB-77">
          <mxGeometry relative="1" as="geometry" />
        </mxCell>
        <mxCell id="qbb-ZSPnhFNRF_dBAjSB-73" value="Necesidad de escribir una nueva Geografía" style="whiteSpace=wrap;html=1;rounded=0;" vertex="1" parent="qbb-ZSPnhFNRF_dBAjSB-1">
          <mxGeometry x="1102" y="1030" width="163" height="30" as="geometry" />
        </mxCell>
        <mxCell id="qbb-ZSPnhFNRF_dBAjSB-75" value="&#39;Geographia Generalis&#39; dde Bernhard Varenius" style="whiteSpace=wrap;html=1;rounded=0;fillColor=#dae8fc;strokeColor=#6c8ebf;" vertex="1" parent="qbb-ZSPnhFNRF_dBAjSB-1">
          <mxGeometry x="1278.5" y="960" width="163" height="30" as="geometry" />
        </mxCell>
        <mxCell id="qbb-ZSPnhFNRF_dBAjSB-77" value="También interés en distinguir la geografía general, física y astronómica, y geografía regional (descripción de espacios determinados)" style="whiteSpace=wrap;html=1;rounded=0;" vertex="1" parent="qbb-ZSPnhFNRF_dBAjSB-1">
          <mxGeometry x="1290" y="1010" width="190" height="70" as="geometry" />
        </mxCell>
        <mxCell id="XOTU3VeHHJmu79t8mAcy-3" value="" style="edgeStyle=elbowEdgeStyle;rounded=0;orthogonalLoop=1;jettySize=auto;html=1;" edge="1" parent="qbb-ZSPnhFNRF_dBAjSB-1" source="XOTU3VeHHJmu79t8mAcy-0" target="XOTU3VeHHJmu79t8mAcy-2">
          <mxGeometry relative="1" as="geometry" />
        </mxCell>
        <mxCell id="XOTU3VeHHJmu79t8mAcy-0" value="Siglo XVIII" style="whiteSpace=wrap;html=1;rounded=0;" vertex="1" parent="qbb-ZSPnhFNRF_dBAjSB-1">
          <mxGeometry x="680" y="1100" width="163" height="30" as="geometry" />
        </mxCell>
        <mxCell id="XOTU3VeHHJmu79t8mAcy-5" value="" style="edgeStyle=elbowEdgeStyle;rounded=0;orthogonalLoop=1;jettySize=auto;html=1;" edge="1" parent="qbb-ZSPnhFNRF_dBAjSB-1" source="XOTU3VeHHJmu79t8mAcy-2" target="XOTU3VeHHJmu79t8mAcy-4">
          <mxGeometry relative="1" as="geometry" />
        </mxCell>
        <mxCell id="XOTU3VeHHJmu79t8mAcy-7" value="" style="edgeStyle=elbowEdgeStyle;rounded=0;orthogonalLoop=1;jettySize=auto;html=1;" edge="1" parent="qbb-ZSPnhFNRF_dBAjSB-1" source="XOTU3VeHHJmu79t8mAcy-2" target="XOTU3VeHHJmu79t8mAcy-6">
          <mxGeometry relative="1" as="geometry" />
        </mxCell>
        <mxCell id="XOTU3VeHHJmu79t8mAcy-2" value="Especialización en las ciencias de la Tierra" style="whiteSpace=wrap;html=1;rounded=0;" vertex="1" parent="qbb-ZSPnhFNRF_dBAjSB-1">
          <mxGeometry x="870" y="1100" width="163" height="30" as="geometry" />
        </mxCell>
        <mxCell id="XOTU3VeHHJmu79t8mAcy-4" value="Geología, Botánica, Física, Química y Cartografía asumen temas de la Geografïa" style="whiteSpace=wrap;html=1;rounded=0;" vertex="1" parent="qbb-ZSPnhFNRF_dBAjSB-1">
          <mxGeometry x="1077" y="1080" width="203" height="50" as="geometry" />
        </mxCell>
        <mxCell id="XOTU3VeHHJmu79t8mAcy-6" value="Geografía queda fuera de las disciplinas &#39;matemáticas&#39; y es de carácter enciclopédico y descriptivo" style="whiteSpace=wrap;html=1;rounded=0;" vertex="1" parent="qbb-ZSPnhFNRF_dBAjSB-1">
          <mxGeometry x="1077" y="1139" width="203" height="51" as="geometry" />
        </mxCell>
        <mxCell id="XOTU3VeHHJmu79t8mAcy-11" value="" style="edgeStyle=elbowEdgeStyle;rounded=0;orthogonalLoop=1;jettySize=auto;html=1;" edge="1" parent="qbb-ZSPnhFNRF_dBAjSB-1" source="XOTU3VeHHJmu79t8mAcy-8" target="XOTU3VeHHJmu79t8mAcy-10">
          <mxGeometry relative="1" as="geometry">
            <Array as="points">
              <mxPoint x="630" y="1240" />
            </Array>
          </mxGeometry>
        </mxCell>
        <mxCell id="XOTU3VeHHJmu79t8mAcy-8" value="Siglo XIX" style="whiteSpace=wrap;html=1;rounded=1;fillColor=#f8cecc;strokeColor=#b85450;" vertex="1" parent="qbb-ZSPnhFNRF_dBAjSB-1">
          <mxGeometry x="618.5" y="1190" width="168" height="30" as="geometry" />
        </mxCell>
        <mxCell id="XOTU3VeHHJmu79t8mAcy-13" value="contribuyeron" style="edgeStyle=elbowEdgeStyle;rounded=0;orthogonalLoop=1;jettySize=auto;html=1;" edge="1" parent="qbb-ZSPnhFNRF_dBAjSB-1" source="XOTU3VeHHJmu79t8mAcy-10" target="XOTU3VeHHJmu79t8mAcy-12">
          <mxGeometry relative="1" as="geometry" />
        </mxCell>
        <mxCell id="XOTU3VeHHJmu79t8mAcy-21" value="" style="edgeStyle=elbowEdgeStyle;rounded=0;orthogonalLoop=1;jettySize=auto;html=1;" edge="1" parent="qbb-ZSPnhFNRF_dBAjSB-1" source="XOTU3VeHHJmu79t8mAcy-10" target="XOTU3VeHHJmu79t8mAcy-20">
          <mxGeometry relative="1" as="geometry">
            <Array as="points">
              <mxPoint x="630" y="1340" />
            </Array>
          </mxGeometry>
        </mxCell>
        <mxCell id="XOTU3VeHHJmu79t8mAcy-10" value="Expansión europea, desarrollo técnico y científico, curiosidad por lugares exóticos (Romanticismo)" style="whiteSpace=wrap;html=1;rounded=0;" vertex="1" parent="qbb-ZSPnhFNRF_dBAjSB-1">
          <mxGeometry x="647" y="1250" width="163" height="60" as="geometry" />
        </mxCell>
        <mxCell id="XOTU3VeHHJmu79t8mAcy-15" value="" style="edgeStyle=elbowEdgeStyle;rounded=0;orthogonalLoop=1;jettySize=auto;html=1;" edge="1" parent="qbb-ZSPnhFNRF_dBAjSB-1" source="XOTU3VeHHJmu79t8mAcy-12" target="XOTU3VeHHJmu79t8mAcy-14">
          <mxGeometry relative="1" as="geometry">
            <Array as="points">
              <mxPoint x="1100" y="1240" />
              <mxPoint x="1110" y="1250" />
              <mxPoint x="1110" y="1290" />
              <mxPoint x="1110" y="1270" />
              <mxPoint x="950" y="1310" />
              <mxPoint x="940" y="1305" />
            </Array>
          </mxGeometry>
        </mxCell>
        <mxCell id="XOTU3VeHHJmu79t8mAcy-17" value="" style="edgeStyle=elbowEdgeStyle;rounded=0;orthogonalLoop=1;jettySize=auto;html=1;" edge="1" parent="qbb-ZSPnhFNRF_dBAjSB-1" source="XOTU3VeHHJmu79t8mAcy-12" target="XOTU3VeHHJmu79t8mAcy-16">
          <mxGeometry relative="1" as="geometry" />
        </mxCell>
        <mxCell id="XOTU3VeHHJmu79t8mAcy-19" value="" style="edgeStyle=elbowEdgeStyle;rounded=0;orthogonalLoop=1;jettySize=auto;html=1;" edge="1" parent="qbb-ZSPnhFNRF_dBAjSB-1" source="XOTU3VeHHJmu79t8mAcy-12" target="XOTU3VeHHJmu79t8mAcy-18">
          <mxGeometry relative="1" as="geometry" />
        </mxCell>
        <mxCell id="XOTU3VeHHJmu79t8mAcy-12" value="Papel desctacado de la Geografía&amp;nbsp;" style="whiteSpace=wrap;html=1;rounded=0;" vertex="1" parent="qbb-ZSPnhFNRF_dBAjSB-1">
          <mxGeometry x="920" y="1270" width="168" height="40" as="geometry" />
        </mxCell>
        <mxCell id="XOTU3VeHHJmu79t8mAcy-14" value="Disciplina en la Universidad" style="whiteSpace=wrap;html=1;rounded=0;" vertex="1" parent="qbb-ZSPnhFNRF_dBAjSB-1">
          <mxGeometry x="1122" y="1220" width="168" height="40" as="geometry" />
        </mxCell>
        <mxCell id="XOTU3VeHHJmu79t8mAcy-16" value="inclusión en la escuela primaria y secundaria" style="whiteSpace=wrap;html=1;rounded=0;" vertex="1" parent="qbb-ZSPnhFNRF_dBAjSB-1">
          <mxGeometry x="1122" y="1270" width="168" height="40" as="geometry" />
        </mxCell>
        <mxCell id="XOTU3VeHHJmu79t8mAcy-18" value="creación de instituciones públicas y privadas relacionadas con la Geografía" style="whiteSpace=wrap;html=1;rounded=0;" vertex="1" parent="qbb-ZSPnhFNRF_dBAjSB-1">
          <mxGeometry x="1122" y="1320" width="168" height="50" as="geometry" />
        </mxCell>
        <mxCell id="XOTU3VeHHJmu79t8mAcy-23" value="" style="edgeStyle=elbowEdgeStyle;rounded=0;orthogonalLoop=1;jettySize=auto;html=1;" edge="1" parent="qbb-ZSPnhFNRF_dBAjSB-1" source="XOTU3VeHHJmu79t8mAcy-20" target="XOTU3VeHHJmu79t8mAcy-22">
          <mxGeometry relative="1" as="geometry" />
        </mxCell>
        <mxCell id="XOTU3VeHHJmu79t8mAcy-25" value="" style="edgeStyle=elbowEdgeStyle;rounded=0;orthogonalLoop=1;jettySize=auto;html=1;" edge="1" parent="qbb-ZSPnhFNRF_dBAjSB-1" source="XOTU3VeHHJmu79t8mAcy-20" target="XOTU3VeHHJmu79t8mAcy-24">
          <mxGeometry relative="1" as="geometry" />
        </mxCell>
        <mxCell id="XOTU3VeHHJmu79t8mAcy-20" value="Cultura alemana de la primera mitad del XIX aporta dos figuras importantes desarrollo Geografía" style="whiteSpace=wrap;html=1;rounded=0;" vertex="1" parent="qbb-ZSPnhFNRF_dBAjSB-1">
          <mxGeometry x="647" y="1470" width="163" height="60" as="geometry" />
        </mxCell>
        <mxCell id="XOTU3VeHHJmu79t8mAcy-27" value="" style="edgeStyle=elbowEdgeStyle;rounded=0;orthogonalLoop=1;jettySize=auto;html=1;" edge="1" parent="qbb-ZSPnhFNRF_dBAjSB-1" source="XOTU3VeHHJmu79t8mAcy-22" target="XOTU3VeHHJmu79t8mAcy-26">
          <mxGeometry relative="1" as="geometry" />
        </mxCell>
        <mxCell id="XOTU3VeHHJmu79t8mAcy-29" value="" style="edgeStyle=elbowEdgeStyle;rounded=0;orthogonalLoop=1;jettySize=auto;html=1;" edge="1" parent="qbb-ZSPnhFNRF_dBAjSB-1" source="XOTU3VeHHJmu79t8mAcy-22" target="XOTU3VeHHJmu79t8mAcy-28">
          <mxGeometry relative="1" as="geometry" />
        </mxCell>
        <mxCell id="XOTU3VeHHJmu79t8mAcy-33" value="" style="edgeStyle=elbowEdgeStyle;rounded=0;orthogonalLoop=1;jettySize=auto;html=1;" edge="1" parent="qbb-ZSPnhFNRF_dBAjSB-1" source="XOTU3VeHHJmu79t8mAcy-22" target="XOTU3VeHHJmu79t8mAcy-32">
          <mxGeometry relative="1" as="geometry" />
        </mxCell>
        <mxCell id="XOTU3VeHHJmu79t8mAcy-22" value="Humboldt" style="whiteSpace=wrap;html=1;rounded=0;" vertex="1" parent="qbb-ZSPnhFNRF_dBAjSB-1">
          <mxGeometry x="860" y="1445" width="80" height="30" as="geometry" />
        </mxCell>
        <mxCell id="XOTU3VeHHJmu79t8mAcy-37" value="" style="edgeStyle=elbowEdgeStyle;rounded=0;orthogonalLoop=1;jettySize=auto;html=1;" edge="1" parent="qbb-ZSPnhFNRF_dBAjSB-1" source="XOTU3VeHHJmu79t8mAcy-24" target="XOTU3VeHHJmu79t8mAcy-36">
          <mxGeometry relative="1" as="geometry" />
        </mxCell>
        <mxCell id="XOTU3VeHHJmu79t8mAcy-39" value="" style="edgeStyle=elbowEdgeStyle;rounded=0;orthogonalLoop=1;jettySize=auto;html=1;" edge="1" parent="qbb-ZSPnhFNRF_dBAjSB-1" source="XOTU3VeHHJmu79t8mAcy-24" target="XOTU3VeHHJmu79t8mAcy-36">
          <mxGeometry relative="1" as="geometry" />
        </mxCell>
        <mxCell id="XOTU3VeHHJmu79t8mAcy-41" value="" style="edgeStyle=elbowEdgeStyle;rounded=0;orthogonalLoop=1;jettySize=auto;html=1;" edge="1" parent="qbb-ZSPnhFNRF_dBAjSB-1" source="XOTU3VeHHJmu79t8mAcy-24" target="XOTU3VeHHJmu79t8mAcy-40">
          <mxGeometry relative="1" as="geometry" />
        </mxCell>
        <mxCell id="XOTU3VeHHJmu79t8mAcy-24" value="Ritter" style="whiteSpace=wrap;html=1;rounded=0;" vertex="1" parent="qbb-ZSPnhFNRF_dBAjSB-1">
          <mxGeometry x="860" y="1670" width="80" height="30" as="geometry" />
        </mxCell>
        <mxCell id="XOTU3VeHHJmu79t8mAcy-26" value="Busca una visión global de la Tierra (que es un todo orgánico y no la yuxtaposición de fenómenos inconexos)" style="whiteSpace=wrap;html=1;rounded=0;" vertex="1" parent="qbb-ZSPnhFNRF_dBAjSB-1">
          <mxGeometry x="971.5" y="1400" width="238.5" height="60" as="geometry" />
        </mxCell>
        <mxCell id="XOTU3VeHHJmu79t8mAcy-31" value="" style="edgeStyle=elbowEdgeStyle;rounded=0;orthogonalLoop=1;jettySize=auto;html=1;" edge="1" parent="qbb-ZSPnhFNRF_dBAjSB-1" source="XOTU3VeHHJmu79t8mAcy-28" target="XOTU3VeHHJmu79t8mAcy-30">
          <mxGeometry relative="1" as="geometry" />
        </mxCell>
        <mxCell id="XOTU3VeHHJmu79t8mAcy-28" value="Método empírico e inductivo" style="whiteSpace=wrap;html=1;rounded=0;" vertex="1" parent="qbb-ZSPnhFNRF_dBAjSB-1">
          <mxGeometry x="973" y="1500" width="130" height="30" as="geometry" />
        </mxCell>
        <mxCell id="XOTU3VeHHJmu79t8mAcy-30" value="Acopiaba datos rigurosamente medidos, los localizaba y comparaba" style="whiteSpace=wrap;html=1;rounded=0;" vertex="1" parent="qbb-ZSPnhFNRF_dBAjSB-1">
          <mxGeometry x="1146" y="1490" width="190" height="50" as="geometry" />
        </mxCell>
        <mxCell id="XOTU3VeHHJmu79t8mAcy-32" value="Obra: &#39;El Cosmos. Ensayo de una descripción física del mundo&#39;" style="whiteSpace=wrap;html=1;rounded=0;" vertex="1" parent="qbb-ZSPnhFNRF_dBAjSB-1">
          <mxGeometry x="971.5" y="1560" width="190" height="40" as="geometry" />
        </mxCell>
        <mxCell id="XOTU3VeHHJmu79t8mAcy-36" value="Objetivo: Estudiar las relaciones entre la superficie terrestre y la actividad humana" style="whiteSpace=wrap;html=1;rounded=0;" vertex="1" parent="qbb-ZSPnhFNRF_dBAjSB-1">
          <mxGeometry x="981.5" y="1640" width="170" height="50" as="geometry" />
        </mxCell>
        <mxCell id="XOTU3VeHHJmu79t8mAcy-40" value="Preocupa por la interrelaciones, pero se centra en el hombre y la historia" style="whiteSpace=wrap;html=1;rounded=0;" vertex="1" parent="qbb-ZSPnhFNRF_dBAjSB-1">
          <mxGeometry x="981.5" y="1710" width="178.5" height="50" as="geometry" />
        </mxCell>
        <mxCell id="XOTU3VeHHJmu79t8mAcy-42" value="" style="shape=curlyBracket;whiteSpace=wrap;html=1;rounded=1;direction=west;" vertex="1" parent="qbb-ZSPnhFNRF_dBAjSB-1">
          <mxGeometry x="1350" y="1400" width="20" height="350" as="geometry" />
        </mxCell>
        <mxCell id="XOTU3VeHHJmu79t8mAcy-43" value="Estos autores están dentro de la &#39;Geografía clásica&#39; + padres de la moderna geografía&lt;br&gt;" style="whiteSpace=wrap;html=1;rounded=1;" vertex="1" parent="qbb-ZSPnhFNRF_dBAjSB-1">
          <mxGeometry x="1380" y="1542.5" width="180" height="65" as="geometry" />
        </mxCell>
      </root>
    </mxGraphModel>
  </diagram>
</mxfile>
